<?xml version="1.0" standalone="no"?>
<!DOCTYPE svg PUBLIC "-//W3C//DTD SVG 20010904//EN"
 "http://www.w3.org/TR/2001/REC-SVG-20010904/DTD/svg10.dtd">
<svg version="1.0" xmlns="http://www.w3.org/2000/svg"
 width="1920.000000pt" height="498.000000pt" viewBox="0 0 1920.000000 498.000000"
 preserveAspectRatio="xMidYMid meet">

<g transform="translate(0.000000,498.000000) scale(0.100000,-0.100000)"
fill="#000000" stroke="none">
<path d="M12081 4858 c86 -172 368 -744 454 -923 40 -82 161 -330 270 -550
108 -220 212 -432 232 -472 19 -40 32 -77 27 -84 -4 -7 -3 -9 3 -6 11 7 46
-60 38 -74 -4 -5 -1 -9 4 -9 6 0 26 -31 45 -69 32 -62 37 -68 60 -64 15 3 26
9 26 14 0 4 24 10 53 12 l52 3 -57 2 c-56 2 -58 3 -78 42 -11 21 -20 41 -20
44 0 3 24 7 53 9 l52 3 -58 2 c-49 2 -59 5 -66 25 -5 12 -100 207 -211 432
-282 571 -380 774 -380 786 0 14 -141 301 -171 349 -12 19 -91 173 -175 343
-151 301 -154 307 -184 307 l-30 0 61 -122z"/>
<path d="M16655 4948 c7 -18 90 -211 183 -428 93 -217 172 -404 176 -416 6
-20 6 -21 -76 -7 -46 8 -121 18 -168 23 -47 5 -224 27 -395 49 -170 22 -330
43 -355 46 -230 29 -687 90 -865 114 -121 16 -308 41 -415 55 -107 14 -420 55
-695 90 -1031 135 -1056 138 -1061 133 -2 -2 53 -12 123 -21 71 -9 211 -28
313 -42 102 -14 280 -38 395 -54 116 -16 298 -41 405 -55 280 -37 254 -29 280
-86 13 -27 25 -47 27 -45 3 2 -5 22 -17 45 l-20 41 25 0 c24 0 240 -28 620
-80 83 -11 233 -31 335 -45 431 -56 740 -96 805 -105 39 -5 113 -14 165 -20
52 -6 102 -14 110 -17 8 -2 40 -7 70 -9 30 -2 111 -14 180 -26 69 -11 134 -21
145 -20 57 2 85 -9 101 -41 18 -34 213 -492 295 -692 28 -66 56 -133 64 -150
8 -16 27 -59 41 -95 15 -36 51 -123 81 -195 127 -300 130 -310 119 -317 -6 -4
-13 -3 -16 2 -7 12 -238 88 -291 96 -24 4 -48 10 -54 14 -5 4 -25 11 -43 15
-19 4 -30 11 -25 18 4 6 0 8 -10 4 -9 -3 -76 14 -149 38 -73 25 -356 119 -628
211 -272 91 -630 211 -795 266 -757 253 -716 238 -734 270 -25 45 -44 67 -26
30 9 -19 14 -36 11 -39 -5 -5 -359 113 -871 289 -110 38 -292 100 -405 138
-113 38 -272 92 -354 119 -82 28 -151 49 -153 47 -2 -2 124 -47 279 -101 823
-284 1238 -428 1405 -486 l122 -43 22 -48 c12 -26 24 -46 26 -44 3 2 -5 22
-17 45 -11 23 -16 41 -10 41 9 0 69 -21 115 -40 11 -5 110 -39 220 -75 110
-37 205 -70 210 -75 6 -4 39 -15 75 -24 35 -9 77 -23 92 -31 15 -7 42 -17 60
-20 18 -4 44 -13 58 -21 14 -7 51 -21 84 -30 l58 -16 44 -94 c25 -52 46 -94
48 -94 6 0 -45 133 -55 144 -14 16 -10 30 4 17 8 -6 38 -14 68 -19 30 -4 53
-13 52 -19 -1 -6 17 -13 40 -15 23 -3 62 -15 87 -27 25 -12 68 -26 95 -32 28
-5 62 -18 77 -29 15 -11 35 -20 44 -20 27 0 154 -43 154 -52 0 -4 7 -8 17 -8
27 0 122 -33 118 -41 -3 -4 14 -10 37 -14 61 -9 168 -45 168 -56 0 -5 12 -9
28 -9 15 0 56 -10 92 -22 l65 -23 -60 -6 -60 -6 76 -1 c56 -2 101 -11 179 -37
57 -19 109 -40 114 -45 6 -6 19 -10 31 -10 21 -1 120 -31 151 -48 10 -5 51
-20 91 -32 39 -13 76 -26 81 -29 14 -10 132 -274 132 -297 0 -2 -9 -4 -19 -4
-21 0 -37 -17 -26 -28 3 -3 10 0 14 7 11 17 46 10 46 -9 0 -8 5 -18 10 -22 6
-5 3 -8 -7 -8 -25 0 -88 32 -82 42 3 4 -11 8 -30 8 -20 0 -36 -4 -36 -10 0
-13 -152 -13 -200 0 -80 21 -313 109 -290 110 22 1 23 2 7 11 -13 7 -22 7 -31
0 -8 -7 -28 -6 -64 3 -29 8 -50 10 -46 5 3 -5 -10 -9 -28 -9 l-33 1 25 14 25
14 -25 1 c-14 0 -38 7 -55 15 l-30 15 30 -25 c36 -30 29 -40 -22 -26 -21 6
-85 11 -143 11 -58 0 -148 5 -200 10 -52 5 -148 10 -213 11 l-117 3 -20 41
c-26 54 -26 55 13 44 17 -5 66 -7 107 -4 47 4 120 0 195 -10 66 -9 140 -17
165 -17 39 0 41 -1 15 -7 -25 -5 -27 -8 -12 -14 26 -10 57 -9 57 2 0 16 52 22
82 10 15 -6 28 -18 28 -26 0 -8 5 -11 10 -8 19 12 10 23 -39 44 -46 19 -74 41
-54 41 4 0 13 11 20 25 15 33 0 33 -17 0 -7 -14 -17 -25 -22 -25 -5 0 -6 -4
-3 -10 10 -16 -111 -12 -151 5 -29 12 -33 17 -25 33 13 24 -15 42 -64 42 -21
0 -35 5 -35 13 0 8 -3 9 -8 1 -5 -8 -54 -9 -160 -5 -146 6 -155 7 -173 30 -30
37 -22 44 16 15 19 -14 35 -22 35 -16 0 6 -10 18 -22 26 -20 14 -19 15 23 13
24 -2 69 3 99 10 l55 13 -97 -4 c-102 -5 -138 7 -138 42 0 13 -2 14 -9 4 -7
-11 -9 -11 -14 2 -4 9 -1 16 6 16 7 0 3 8 -9 18 -12 9 -43 63 -69 119 -27 57
-50 101 -52 99 -3 -3 76 -189 142 -331 20 -44 46 -100 57 -125 11 -25 30 -67
43 -95 87 -193 106 -238 101 -242 -14 -14 -266 78 -266 98 0 4 8 10 18 13 9 2
1 2 -19 -1 -31 -4 -120 38 -775 366 -406 203 -870 437 -1029 518 -307 156
-356 180 -340 165 11 -11 188 -102 735 -380 212 -107 444 -225 515 -261 l130
-66 31 -65 c58 -119 78 -107 -182 -104 -125 2 -229 6 -232 8 -2 3 -12 1 -22
-4 -11 -6 -26 -4 -43 5 -15 8 -27 10 -27 5 0 -19 49 -24 290 -26 140 -2 259
-3 263 -3 4 -1 17 -17 28 -36 12 -19 25 -33 29 -30 9 6 23 -25 15 -33 -3 -3
-5 0 -5 7 0 7 -5 9 -11 6 -7 -5 -6 -12 4 -23 8 -10 22 -31 30 -48 l16 -30 -32
-3 c-18 -1 -113 -2 -212 -2 -136 0 -170 -3 -140 -10 21 -5 116 -8 209 -6 147
3 172 1 186 -13 26 -26 49 -31 91 -20 47 13 195 -5 220 -27 8 -7 25 -13 37
-13 11 0 34 -11 50 -25 17 -14 39 -25 50 -25 11 0 25 -7 32 -15 11 -14 1 -15
-91 -9 -57 3 -126 9 -152 14 -26 4 -67 4 -90 -1 -51 -9 -78 5 -106 59 -11 20
-20 33 -21 29 0 -4 6 -20 14 -35 l14 -27 -46 -3 c-26 -1 -86 -3 -134 -3 -49 0
-88 -5 -88 -10 0 -15 159 -14 211 1 20 6 39 6 50 -1 18 -9 66 -106 61 -121 -1
-5 7 -17 18 -28 19 -19 25 -38 21 -67 -1 -6 3 -14 9 -18 19 -12 10 -21 -26
-23 -22 -2 -48 5 -70 18 -39 25 -43 30 -14 23 13 -4 20 0 20 10 0 21 45 27 66
8 15 -15 16 -14 6 5 -19 36 -37 45 -66 34 -14 -5 -26 -14 -26 -20 0 -14 -31
-12 -60 5 -14 8 -40 21 -57 30 -18 8 -33 20 -33 25 0 11 33 -3 60 -25 25 -20
80 -27 80 -10 0 15 39 41 55 36 6 -1 6 1 0 8 -14 14 -53 2 -60 -18 -7 -22 -61
-17 -88 7 -10 9 -28 17 -40 17 -12 1 -32 7 -45 14 -12 6 -26 9 -31 7 -5 -3
-20 3 -32 15 -24 20 -24 20 -1 9 12 -6 22 -7 22 -1 0 9 -26 24 -45 26 -19 1
-57 34 -51 44 4 5 1 13 -5 17 -8 5 -9 3 -4 -5 5 -9 2 -12 -11 -9 -11 2 -18 10
-16 16 1 7 -1 11 -5 11 -20 -3 -34 5 -92 51 -47 37 -68 49 -83 44 -14 -4 -18
-2 -14 5 4 6 1 11 -6 11 -17 0 -113 49 -162 83 l-39 26 34 14 c23 10 38 11 47
4 7 -5 15 -7 19 -4 3 4 -6 11 -19 18 -19 8 -31 8 -46 0 -36 -19 -69 -12 -138
32 l-66 42 43 6 c47 6 42 9 -33 15 -33 3 -67 16 -113 45 -36 23 -65 42 -65 43
0 1 27 0 60 -2 41 -3 60 -1 60 7 0 7 -10 9 -26 7 -20 -4 -24 -2 -20 11 5 13 4
14 -8 4 -20 -17 -112 -10 -108 7 1 8 -2 11 -7 7 -13 -7 -122 65 -115 76 3 5
13 9 22 10 10 0 12 3 5 5 -7 3 -20 1 -31 -5 -15 -8 -29 -3 -70 25 -55 37 -83
46 -42 14 l25 -20 -77 2 c-43 1 -80 -1 -83 -4 -4 -3 22 -6 56 -7 34 0 64 -3
67 -5 2 -3 12 -1 22 4 13 7 35 -2 91 -37 41 -25 79 -50 84 -55 7 -7 -35 -8
-127 -4 -76 3 -138 3 -138 -1 0 -6 134 -12 293 -13 5 0 5 -5 1 -12 -4 -6 -3
-8 4 -4 6 3 39 -12 74 -34 l63 -41 -51 3 c-32 2 -51 -1 -51 -8 0 -7 20 -10 56
-8 50 2 63 -2 126 -39 59 -35 66 -43 46 -45 -20 -3 -184 4 -216 9 -15 2 -67
-9 -74 -17 -3 -4 15 -3 41 0 27 4 54 4 60 -1 7 -4 65 -8 129 -9 l116 -2 71
-47 c73 -49 86 -60 55 -51 -10 3 -79 6 -153 7 -165 2 -174 4 -190 37 -11 25
-13 25 -19 8 -10 -26 -36 -28 -75 -7 -44 25 -67 29 -112 22 -43 -8 -94 4 -94
22 0 8 -3 8 -8 0 -6 -10 -16 -7 -40 10 -17 13 -29 27 -25 30 3 4 -3 7 -15 7
-11 0 -23 3 -26 8 -6 11 -96 74 -96 68 0 -3 36 -33 80 -67 44 -34 77 -66 73
-71 -3 -6 -9 -5 -14 3 -4 7 -10 11 -14 8 -9 -9 64 -84 82 -84 9 0 22 -10 30
-22 15 -22 15 -23 -14 -12 -17 5 -43 23 -58 39 -16 17 -39 30 -51 30 -12 0
-27 7 -34 15 -7 8 -19 15 -27 15 -8 0 -24 10 -35 23 l-20 22 5 -22 c6 -27 -7
-30 -23 -5 -10 15 -11 14 -6 -6 3 -18 1 -21 -8 -13 -7 6 -39 10 -72 10 -60 -1
-107 11 -119 30 -3 6 -12 11 -18 11 -7 0 -3 -7 8 -16 18 -14 7 -15 -115 -9
-90 5 -132 3 -125 -3 6 -6 64 -13 130 -16 66 -4 127 -7 136 -9 9 -1 45 -27 79
-56 l64 -53 -104 6 c-58 4 -120 9 -137 12 -19 3 -33 1 -33 -5 0 -11 41 -17
170 -26 47 -3 87 -10 88 -15 2 -6 8 -8 13 -4 5 3 9 0 9 -5 0 -6 5 -11 11 -11
6 0 8 8 5 18 -3 9 10 0 29 -20 19 -21 38 -38 41 -37 3 0 9 -3 12 -7 4 -4 1 -4
-5 0 -7 4 -13 3 -13 -3 0 -5 8 -15 18 -20 14 -9 12 -10 -13 -10 -80 0 -228 19
-243 31 -16 12 -16 11 -2 -7 8 -11 19 -23 23 -26 34 -25 217 -215 217 -225 0
-8 6 -11 13 -9 7 3 41 -25 77 -62 36 -37 56 -60 44 -50 -11 9 -24 17 -28 17
-16 0 -69 47 -78 70 -7 16 -12 20 -15 12 -4 -10 -9 -7 -20 8 -8 12 -21 19 -28
16 -7 -2 -32 17 -56 42 l-44 47 44 -40 c24 -22 42 -35 40 -30 -6 18 -161 156
-167 150 -8 -7 -82 66 -82 81 0 14 -27 37 -47 40 -9 2 -63 49 -122 106 -58 57
-135 131 -171 164 -36 34 -77 77 -93 97 -26 34 -29 35 -65 24 -47 -14 -47 -14
-34 -30 9 -10 -55 -35 -316 -121 -180 -60 -330 -111 -333 -115 -4 -3 22 -50
57 -104 35 -54 64 -103 64 -108 0 -19 -25 -3 -48 32 -12 19 -29 42 -37 51 -8
10 -31 43 -51 73 -20 30 -39 55 -41 55 -5 0 3 -14 39 -67 25 -37 27 -43 11
-43 -14 0 -11 -5 12 -21 17 -12 22 -19 13 -15 -15 4 -18 0 -17 -27 1 -18 3
-24 6 -14 2 9 13 17 23 17 20 0 32 -23 24 -45 -4 -9 3 -18 19 -24 13 -5 27
-17 31 -27 6 -16 5 -16 -15 2 l-22 19 7 -25 c4 -14 4 -20 -1 -15 -11 14 -86
48 -78 35 10 -16 -37 -30 -54 -16 -10 8 -10 2 3 -22 13 -25 14 -33 4 -37 -112
-40 -626 -215 -633 -215 -6 0 -21 29 -32 66 l-22 65 22 8 c12 4 151 52 310
107 158 54 287 102 287 107 0 5 -4 7 -8 5 -5 -1 -145 -50 -311 -107 -250 -86
-305 -102 -313 -90 -13 18 -18 35 77 -249 55 -167 74 -237 66 -245 -12 -12
-10 -19 -82 200 -29 89 -55 161 -57 159 -4 -4 105 -353 117 -376 4 -8 21 -58
36 -110 15 -52 54 -173 86 -269 56 -165 62 -197 36 -188 -7 2 -17 -1 -23 -8
-9 -9 -586 -204 -618 -209 -6 0 -15 42 -21 94 -9 85 -15 101 -49 153 -23 33
-35 61 -30 66 5 4 144 54 309 111 165 57 306 108 313 113 31 24 4 21 -85 -10
-347 -122 -583 -200 -583 -194 0 4 -11 14 -25 21 -18 10 -25 22 -26 44 0 25
-2 27 -8 11 -8 -19 -8 -19 -19 2 -26 47 -28 45 141 105 48 17 86 32 84 34 -2
3 -23 -3 -47 -11 -24 -8 -77 -26 -120 -39 -75 -23 -76 -23 -75 -3 2 23 -3 21
395 159 253 87 318 114 307 124 -1 1 -119 -38 -262 -88 -143 -50 -305 -105
-360 -122 l-100 -32 -1 35 c0 20 -3 55 -6 79 -5 40 -3 44 21 54 14 6 161 57
326 114 355 124 335 116 315 121 -8 1 -163 -49 -344 -112 -182 -63 -331 -113
-332 -112 -1 1 -5 34 -9 73 -5 54 -3 73 7 76 7 3 153 54 323 113 171 60 312
110 314 112 24 20 -55 -5 -334 -102 -181 -63 -330 -113 -332 -111 -2 2 3 11
12 20 15 15 15 17 1 22 -9 4 -16 18 -16 35 0 15 -6 34 -14 41 -18 17 -19 16
334 140 242 84 327 118 298 118 -3 0 -160 -54 -348 -120 -189 -66 -345 -118
-348 -115 -3 3 -7 29 -8 59 l-3 53 67 26 c37 15 184 67 327 117 143 50 264 96
270 102 7 8 4 9 -10 4 -219 -81 -622 -215 -632 -211 -8 2 -11 0 -8 -5 3 -6 2
-10 -3 -10 -13 0 -22 25 -23 68 -1 20 -3 30 -6 21 -2 -8 8 -174 22 -367 30
-419 29 -378 9 -361 -9 8 -15 26 -13 48 1 20 -1 47 -4 61 -6 22 -11 81 -34
405 -7 95 -13 111 -13 32 0 -37 -4 -57 -12 -57 -6 0 -4 -7 5 -18 13 -14 17
-39 17 -110 0 -81 -2 -91 -17 -85 -11 4 -14 3 -9 -5 4 -7 14 -12 22 -12 9 0
14 -11 14 -34 0 -28 -4 -35 -22 -39 l-23 -4 23 -8 c36 -12 27 -75 -11 -75 -22
0 -20 -2 29 -34 1 -1 5 -12 9 -25 6 -20 4 -23 -10 -17 -13 4 -16 2 -11 -9 9
-24 -29 -18 -47 8 -16 22 -16 21 -16 -16 -1 -21 -5 -46 -10 -55 -4 -9 -11 -30
-14 -47 l-6 -30 15 30 15 30 -5 -32 c-3 -19 -1 -33 5 -33 13 0 3 -132 -14
-180 -15 -42 -52 -84 -67 -75 -6 3 -8 11 -4 16 3 5 1 15 -4 22 -15 18 31 100
46 85 9 -9 12 4 12 55 0 51 -3 67 -14 67 -8 0 -17 -13 -21 -29 -5 -22 -13 -30
-36 -33 -29 -4 -29 -4 -29 43 0 50 -12 67 -54 75 -18 3 -26 0 -26 -10 0 -7 -6
-19 -14 -25 -20 -16 -34 5 -39 59 -2 31 -4 21 -5 -31 l-2 -76 -235 -83 c-130
-46 -238 -81 -240 -78 -3 3 0 41 7 86 l11 82 51 19 c28 10 130 47 226 81 181
65 187 67 178 75 -2 3 -42 -9 -89 -26 -46 -17 -146 -53 -222 -80 l-139 -49 7
62 c4 35 11 72 15 83 6 15 63 40 244 104 130 46 236 88 236 92 0 8 -47 -8
-359 -120 -63 -23 -115 -40 -116 -38 -1 1 2 36 8 78 l10 77 216 77 c217 77
258 94 233 95 -7 0 -107 -34 -223 -76 -116 -42 -213 -74 -215 -71 -3 3 -2 31
1 62 9 67 -10 56 268 155 97 34 177 67 177 71 0 5 -21 0 -47 -10 -27 -10 -122
-44 -212 -76 -90 -32 -169 -64 -175 -70 -9 -10 -58 -303 -82 -490 -5 -41 -24
-161 -29 -183 -3 -12 -17 -27 -31 -32 -14 -6 -23 -13 -21 -17 3 -5 -4 -62 -14
-128 -11 -66 -22 -136 -24 -155 -6 -41 -53 -312 -61 -353 -4 -18 -12 -27 -25
-27 -10 0 -19 -4 -19 -9 0 -5 -33 -19 -72 -31 -40 -12 -77 -23 -83 -25 -5 -2
8 -4 31 -4 52 -1 134 27 134 45 0 8 6 14 13 14 9 0 12 -10 9 -30 -3 -21 0 -30
10 -30 10 0 18 32 31 123 41 282 89 584 98 605 21 53 24 13 7 -95 -44 -288
-78 -514 -78 -523 0 -20 20 -10 24 13 3 12 15 97 27 188 l22 167 242 86 c134
47 246 86 250 86 8 0 1 -358 -6 -364 -7 -5 -556 -196 -565 -196 -5 0 -9 -20
-9 -45 0 -30 4 -45 12 -45 7 0 13 10 13 23 0 13 6 30 13 39 6 8 125 55 262
103 138 49 256 90 263 93 9 3 12 -26 12 -127 l0 -131 455 0 c357 0 455 3 455
13 0 8 3 7 10 -3 5 -8 13 -11 17 -6 4 4 0 13 -10 20 -9 7 -17 16 -17 18 0 6
93 38 110 38 6 0 8 -4 5 -10 -9 -14 -5 -13 60 12 43 16 59 18 64 9 6 -9 18 -9
52 3 24 9 51 16 58 16 25 0 -1 -16 -53 -34 -38 -12 -51 -13 -57 -4 -6 9 -16 8
-44 -5 -20 -9 -42 -17 -50 -17 -8 0 -15 -6 -15 -13 0 -8 -10 -19 -22 -26 -19
-10 -20 -11 -3 -7 11 3 47 14 79 25 57 20 94 22 45 2 -77 -30 -76 -30 61 -29
84 1 149 6 174 15 49 17 56 16 32 -2 -26 -20 -1 -20 45 -1 19 7 50 17 69 20
33 6 33 5 -10 -14 l-45 -19 162 0 c113 1 163 4 167 12 3 9 5 8 5 0 1 -19 49
-16 109 7 66 25 92 25 32 0 l-45 -19 162 0 c89 -1 173 3 188 9 19 7 24 7 19
-1 -7 -13 61 -8 101 6 16 6 17 5 5 -4 -18 -14 453 -11 485 3 16 6 17 6 5 -3
-11 -8 801 -11 2863 -11 l2877 0 0 1029 c0 814 -3 1030 -12 1034 -10 4 -10 6
0 6 8 1 12 21 12 65 l0 63 -84 27 c-88 28 -122 51 -92 62 9 3 16 10 16 15 0 5
-14 0 -30 -13 l-30 -22 -63 21 c-34 11 -120 42 -192 68 -71 26 -153 55 -182
65 -28 10 -62 24 -75 31 -22 12 -22 13 17 25 22 6 32 12 23 13 -10 1 -18 7
-18 14 0 7 -8 14 -17 14 -10 1 -27 3 -38 4 -11 2 -40 1 -65 0 l-45 -3 50 -13
c50 -14 71 -11 45 5 -22 14 6 13 32 -1 20 -11 20 -11 -1 -26 -22 -15 -65 -12
-106 8 -11 5 -38 15 -60 23 l-40 15 35 2 35 2 -40 6 c-22 4 -45 3 -52 -2 -7
-5 -15 -3 -20 5 -10 16 -94 41 -141 42 -18 1 -37 8 -42 16 -7 10 -10 11 -10 3
0 -8 -15 -13 -41 -13 -36 0 -40 2 -28 16 8 10 21 13 38 9 24 -6 25 -5 7 7 -10
8 -31 12 -50 10 -17 -3 -25 -7 -18 -10 10 -3 9 -7 -3 -16 -22 -16 -147 -5
-153 14 -3 7 -16 24 -29 36 -16 15 -20 23 -11 26 8 3 4 10 -12 18 -38 20 -80
57 -72 64 3 4 -4 9 -16 13 -12 3 -22 12 -22 19 0 8 -11 31 -24 52 -31 48 -41
82 -25 82 8 0 7 6 -3 18 -24 26 -67 106 -72 133 -2 13 -15 44 -29 68 -14 25
-23 49 -20 54 3 4 -2 16 -10 25 -8 9 -36 69 -62 132 -26 63 -76 180 -111 260
-34 80 -76 179 -92 220 -17 41 -42 101 -56 133 -15 32 -23 63 -20 69 4 5 20 7
38 4 17 -3 56 -9 86 -12 30 -3 163 -21 295 -39 132 -18 267 -36 300 -40 33 -3
76 -10 95 -15 19 -5 116 -21 215 -34 459 -64 764 -107 918 -131 92 -14 170
-25 173 -25 2 0 4 20 4 44 l0 43 -47 7 c-27 3 -145 17 -263 31 -118 13 -330
38 -470 55 -140 17 -261 30 -270 29 -8 -1 -22 1 -30 4 -27 10 -218 29 -229 23
-9 -6 -183 15 -441 54 -36 5 -135 17 -220 26 -85 9 -163 21 -173 28 -11 6 -73
139 -147 311 -70 165 -154 362 -186 437 -33 76 -64 138 -71 138 -9 0 -9 -8 2
-32z m1628 -1015 c-7 -2 -21 -2 -30 0 -10 3 -4 5 12 5 17 0 24 -2 18 -5z
m-579 -1306 c20 -24 46 -44 58 -44 11 -1 29 -11 40 -22 15 -16 30 -21 71 -20
42 1 47 3 27 9 -18 6 -5 9 45 8 39 -1 76 -3 83 -6 18 -6 15 -20 -5 -25 -11 -3
-5 -5 12 -6 41 -2 162 -35 208 -57 31 -15 35 -19 20 -25 -12 -4 -4 -8 27 -13
67 -11 111 -26 104 -37 -3 -6 4 -7 19 -4 15 4 58 -5 113 -25 l89 -31 -70 7
c-103 10 -75 -3 58 -26 65 -11 132 -28 150 -37 17 -10 52 -23 77 -29 53 -14
20 -17 -52 -5 -27 4 -48 4 -48 0 0 -12 68 -29 115 -29 29 0 36 -3 25 -10 -11
-7 -5 -13 30 -29 25 -11 40 -21 33 -21 -22 0 -618 193 -621 202 -2 4 -14 8
-28 8 -13 0 -70 17 -126 39 -57 21 -134 46 -173 56 -108 27 -231 71 -264 95
-24 16 -71 94 -71 116 0 14 22 -2 54 -39z m491 -99 c20 -20 20 -20 -5 -13 -14
5 -43 16 -65 25 l-40 18 45 -5 c26 -3 54 -14 65 -25z m-2468 -182 c-4 -9 2
-11 18 -8 16 3 54 -12 110 -43 47 -25 122 -64 166 -86 47 -24 77 -44 73 -50
-3 -6 -17 -9 -30 -6 -13 2 -24 0 -24 -5 0 -5 -17 3 -37 19 -45 34 -106 63
-132 63 -10 0 -25 8 -32 17 -12 14 -12 16 2 11 9 -3 22 -2 30 3 10 6 8 9 -11
9 -14 0 -34 7 -44 15 -22 17 -62 20 -71 6 -3 -5 0 -13 6 -17 8 -4 9 -3 5 4
-10 16 35 16 58 -1 15 -11 10 -12 -31 -11 -67 3 -66 2 -59 19 7 19 -21 34 -62
33 -43 -1 -26 -14 23 -17 6 -1 11 -10 11 -20 0 -19 -1 -19 -24 0 -14 10 -29
19 -34 19 -6 0 -23 11 -40 25 -20 17 -24 25 -14 25 9 0 16 -6 16 -12 0 -9 3
-9 9 1 8 13 12 13 28 0 16 -13 17 -13 4 4 -7 9 -19 17 -26 17 -8 0 -27 11 -43
25 -31 26 -62 33 -62 14 0 -6 -6 -9 -14 -6 -16 6 -40 -16 -29 -26 3 -4 1 -7
-6 -7 -7 0 -11 6 -8 14 3 7 -7 27 -22 43 -15 16 -25 35 -23 41 2 7 -1 12 -7
12 -6 0 -20 18 -31 40 l-20 40 191 -96 c122 -61 189 -100 186 -108z m2538 164
c8 0 15 -5 15 -11 0 -6 -7 -8 -16 -5 -9 3 -22 6 -29 6 -8 0 -11 7 -8 21 5 18
7 19 15 5 5 -9 16 -16 23 -16z m-1938 -2 c78 3 281 -13 291 -22 2 -3 -4 -16
-15 -30 l-18 -24 -155 5 c-170 5 -202 12 -219 49 -15 34 -14 37 12 27 12 -4
59 -7 104 -5z m-3034 -86 c20 -14 37 -26 37 -27 0 -2 -159 -56 -352 -121 -194
-64 -359 -119 -367 -122 -9 -3 -12 -1 -8 5 4 6 4 13 -1 15 -4 1 -21 20 -36 40
-26 35 -27 38 -10 45 11 4 161 56 334 114 351 119 307 114 403 51z m5097 28
c0 -12 -8 -12 -35 0 -18 8 -17 9 8 9 15 1 27 -3 27 -9z m95 -30 c3 -6 0 -10
-9 -10 -27 0 -45 12 -39 26 5 14 35 5 48 -16z m-579 4 c56 -16 75 -30 27 -20
-16 4 -39 8 -52 11 -23 4 -54 25 -37 25 4 0 32 -7 62 -16z m653 -20 c2 -2 -10
-4 -27 -4 -18 0 -32 5 -32 10 0 9 47 4 59 -6z m-3000 -18 c9 -11 5 -15 -20
-20 -44 -9 -59 -8 -59 4 0 6 9 10 20 10 11 0 20 5 20 10 0 15 26 12 39 -4z
m3031 -11 c72 -9 130 -27 130 -39 0 -6 15 -12 33 -12 33 -1 93 -21 86 -29 -11
-10 -141 17 -190 40 -30 13 -63 25 -74 26 -11 0 -36 7 -55 15 -34 13 -34 14
-5 9 17 -2 50 -7 75 -10z m-480 -22 l85 -28 -105 -7 c-125 -9 -241 -2 -267 17
-17 12 -16 14 9 25 19 9 41 10 85 2 34 -6 62 -6 69 -1 6 5 14 6 17 2 4 -3 7
-1 7 5 0 16 4 16 100 -15z m-4744 -15 c58 -50 76 -69 72 -74 -3 -2 -157 -55
-344 -117 -258 -87 -342 -111 -353 -103 -7 6 -30 28 -51 49 -20 20 -43 37 -50
37 -7 0 -10 3 -7 6 8 8 667 233 684 233 6 1 28 -14 49 -31z m257 -196 c78 -74
130 -132 119 -130 -24 4 -362 328 -362 347 0 15 42 -22 243 -217z m1925 196
c-37 -36 -45 -39 -58 -23 -10 12 -8 16 11 24 13 5 32 10 42 10 15 1 16 -1 5
-11z m1072 -21 c36 -4 110 -9 164 -12 99 -5 147 -13 156 -24 3 -3 25 -19 48
-34 24 -16 42 -30 40 -31 -1 -2 -79 2 -173 9 -93 7 -159 13 -145 14 l25 2 -25
10 c-17 7 -32 7 -48 0 -13 -6 -37 -11 -54 -11 l-31 0 27 -21 c21 -16 35 -20
64 -15 56 8 228 6 302 -4 36 -5 83 -10 105 -11 22 -1 74 -14 115 -30 41 -15
89 -32 105 -36 49 -13 -176 -16 -282 -4 -106 13 -220 14 -209 4 8 -9 105 -16
398 -32 172 -9 190 -12 239 -37 30 -15 58 -33 64 -40 5 -7 19 -14 30 -17 20
-5 -112 -2 -350 8 -70 3 -115 1 -110 -4 8 -7 352 -31 438 -31 10 0 16 -3 14
-7 -3 -5 25 -8 61 -8 43 0 67 -4 70 -12 2 -7 12 -13 22 -13 25 0 32 -24 10
-38 -13 -8 -21 -7 -31 1 -10 10 -11 9 -2 -3 8 -11 25 -14 62 -12 28 2 49 7 47
11 -3 4 12 5 32 2 l37 -4 -34 -8 c-66 -14 -177 -18 -289 -11 -84 5 -116 4
-124 -5 -7 -8 -4 -12 9 -11 10 0 95 -2 188 -6 139 -6 184 -5 244 8 55 12 82
14 111 6 42 -11 53 -21 67 -66 l11 -31 -157 -18 c-144 -16 -159 -16 -195 -1
-21 9 -43 13 -49 9 -5 -3 -7 -2 -4 4 8 12 -117 68 -132 59 -16 -11 -303 99
-386 147 -44 25 -71 47 -64 49 8 3 3 5 -11 5 -34 1 -272 97 -392 159 -38 20
-35 11 3 -14 l31 -19 -73 3 c-41 3 -95 6 -121 8 -27 2 -48 0 -48 -5 0 -10 58
-17 187 -23 95 -4 111 -7 213 -51 61 -27 109 -49 108 -50 -2 -1 -57 1 -123 6
-111 7 -135 6 -124 -5 2 -3 76 -10 163 -16 l159 -11 91 -53 c50 -29 98 -56
106 -59 13 -5 13 -5 0 -6 -42 -1 -279 28 -303 38 -16 6 -32 9 -37 6 -4 -3 -10
1 -13 9 -3 8 -28 15 -62 19 -31 3 -62 10 -68 15 -7 6 -56 21 -109 35 -53 13
-109 33 -124 43 -15 10 -43 29 -63 41 -27 16 -35 27 -33 45 2 18 0 20 -8 8 -5
-8 -10 -12 -10 -8 0 3 -3 14 -7 24 -5 13 -3 15 8 10 8 -5 8 -2 -2 6 -9 7 -23
27 -32 44 l-16 31 42 -7 c23 -5 76 -14 117 -20 41 -7 84 -17 95 -22 19 -8 19
-8 2 5 -9 8 -45 20 -79 27 -59 11 -126 40 -175 76 -13 9 -23 14 -23 11 0 -3
19 -19 42 -36 46 -34 46 -36 1 -21 -26 10 -59 51 -48 62 6 6 253 2 325 -5z
m-2405 -49 c19 -21 18 -21 -8 2 -16 14 -32 24 -35 22 -4 -2 -8 2 -10 8 -6 18
29 -3 53 -32z m4165 -8 c141 -48 143 -49 93 -50 -28 0 -86 5 -129 11 -46 6
-80 7 -86 1 -5 -5 34 -14 99 -21 59 -7 135 -17 168 -22 34 -6 65 -9 70 -8 17
5 75 -12 75 -22 0 -5 6 -8 13 -7 6 2 11 -2 10 -8 -1 -6 6 -11 15 -11 81 0 53
-8 -43 -13 -66 -3 -113 -8 -105 -11 30 -13 128 -29 267 -46 79 -9 140 -19 137
-22 -5 -6 -9 -7 -35 -10 -5 0 -7 -5 -4 -11 4 -6 -5 -10 -20 -10 -15 0 -24 -4
-20 -10 3 -5 15 -10 25 -10 10 0 21 -4 25 -9 6 -11 -34 -1 -85 22 -19 9 -69
25 -110 37 -107 30 -327 108 -381 135 -60 31 -130 45 -274 55 -124 8 -199 29
-233 64 -16 18 -14 18 53 13 39 -2 93 -1 120 3 28 4 86 8 130 9 71 1 96 -5
225 -49z m-4435 32 c6 -4 20 -26 32 -49 l21 -43 -27 0 c-23 0 -74 35 -140 96
-8 7 104 4 114 -4z m3173 -12 c12 0 22 -6 22 -14 0 -24 -19 -29 -45 -12 -13 9
-41 17 -62 17 -38 1 -38 1 -8 9 17 5 39 6 50 4 11 -2 30 -4 43 -4z m1800 -16
c53 -7 58 -10 44 -31 -8 -13 -52 -7 -52 7 0 5 -25 14 -55 20 -58 12 -78 26
-22 16 17 -3 56 -8 85 -12z m-1723 -15 c0 -7 -8 -15 -17 -17 -18 -3 -25 18
-11 32 10 10 28 1 28 -15z m745 -30 c19 -7 76 -14 125 -15 145 -4 316 -46 339
-82 3 -5 -11 -17 -32 -26 -52 -24 -151 -45 -158 -35 -3 5 -10 6 -17 2 -17 -10
-124 -5 -147 7 -19 10 -25 6 -20 -15 1 -5 -1 -7 -5 -3 -4 3 -7 9 -6 12 0 11
-55 61 -83 76 -27 14 -96 94 -96 111 0 5 15 3 33 -5 17 -7 48 -19 67 -27z
m-4420 -24 c29 -30 52 -56 49 -58 -2 -2 -161 -57 -354 -121 l-350 -116 -32 37
c-18 20 -33 40 -33 44 0 4 -7 14 -15 22 -13 14 24 28 328 130 188 64 344 116
347 116 3 1 30 -24 60 -54z m2035 5 c4 6 4 14 1 17 -7 7 41 33 62 33 15 0 122
-76 122 -87 0 -3 -21 -3 -46 1 -26 3 -64 1 -85 -4 -50 -14 -73 -2 -99 53 l-21
42 30 -33 c19 -22 31 -30 36 -22z m3462 36 c4 -7 15 -16 23 -19 8 -3 1 -6 -16
-6 -35 -1 -45 5 -37 25 7 18 20 18 30 0z m-4182 -6 c35 0 60 -7 84 -23 53 -34
62 -40 115 -72 l50 -29 -29 -8 c-21 -5 -34 -3 -46 8 -14 12 -47 16 -161 17
l-143 2 -49 48 c-38 38 -51 45 -62 36 -11 -9 -18 -8 -29 1 -28 23 4 30 115 25
58 -3 128 -5 155 -5z m995 -3 c0 -9 11 -13 33 -12 38 3 65 -13 45 -27 -9 -5
-5 -7 12 -6 16 2 25 -3 28 -15 3 -15 -1 -17 -25 -11 -15 4 -37 15 -49 25 -11
11 -33 19 -50 20 -16 0 -23 3 -16 6 23 9 13 25 -12 19 -14 -3 -28 -2 -31 4 -4
6 8 10 29 10 23 0 36 -5 36 -13z m1505 -6 l40 -19 -63 -1 c-60 -1 -62 0 -50
19 16 24 22 25 73 1z m1785 -16 c38 -15 30 -19 -19 -9 -17 4 -31 10 -31 15 0
11 7 11 50 -6z m-4810 -7 c0 -4 -9 -8 -20 -8 -11 0 -20 4 -20 8 0 4 9 8 20 8
11 0 20 -4 20 -8z m3180 -32 c25 -7 38 -15 30 -18 -30 -10 -3 -17 35 -9 22 5
77 11 122 15 76 5 82 4 80 -14 -1 -15 -12 -21 -47 -27 -69 -12 -200 -10 -208
3 -4 7 -24 19 -44 27 -21 9 -38 21 -38 26 0 14 15 14 70 -3z m-2404 -24 c67
-49 72 -67 7 -26 -58 36 -76 54 -55 54 5 0 27 -13 48 -28z m924 12 c0 -2 -7
-4 -15 -4 -8 0 -15 4 -15 10 0 5 7 7 15 4 8 -4 15 -8 15 -10z m3175 6 c8 -13
-15 -13 -35 0 -12 8 -11 10 7 10 12 0 25 -4 28 -10z m-3027 -23 c20 -13 48
-27 62 -30 14 -3 34 -13 45 -21 l20 -15 -20 -1 c-11 0 -40 12 -65 26 -27 16
-55 24 -70 21 -14 -2 -36 0 -50 4 -22 8 -21 8 7 4 18 -2 35 0 38 5 3 6 1 10
-4 10 -6 0 -11 5 -11 10 0 14 6 13 48 -13z m-1744 -16 c3 -5 0 -11 -7 -13 -13
-5 -49 27 -40 36 6 6 39 -10 47 -23z m3442 -4 c4 -4 -1 -7 -12 -7 -34 0 -64
12 -64 25 0 10 7 10 35 1 19 -7 38 -15 41 -19z m1121 27 c-3 -3 -12 -4 -19 -1
-8 3 -5 6 6 6 11 1 17 -2 13 -5z m73 -30 l25 -15 -25 7 c-14 3 -32 10 -40 15
-13 7 -13 8 0 8 8 0 26 -6 40 -15z m83 9 c-7 -2 -19 -2 -25 0 -7 3 -2 5 12 5
14 0 19 -2 13 -5z m-5479 -62 c38 -38 54 -61 46 -66 -9 -6 -719 -245 -727
-245 -1 0 -20 27 -42 59 -22 33 -46 61 -53 63 -10 4 680 242 712 247 3 1 32
-25 64 -58z m2396 38 c0 -6 -4 -7 -10 -4 -5 3 -10 11 -10 16 0 6 5 7 10 4 6
-3 10 -11 10 -16z m-1045 -11 c19 -10 37 -13 50 -7 36 14 49 9 145 -52 l95
-60 -75 2 c-41 2 -89 0 -106 -4 -28 -7 -35 -3 -78 44 -46 50 -49 52 -62 34
-13 -18 -16 -18 -59 13 -39 27 -48 30 -75 21 -22 -8 -37 -7 -60 3 -16 7 -30
15 -30 18 0 3 51 5 112 4 81 0 121 -5 143 -16z m1105 6 c0 -11 -28 -33 -34
-27 -13 13 -5 33 14 33 11 0 20 -3 20 -6z m140 -37 c19 -9 28 -16 20 -16 -8 0
-26 6 -40 14 -14 8 -34 14 -46 15 -11 0 -29 6 -39 14 -17 12 -14 12 25 2 25
-7 61 -20 80 -29z m124 27 c3 -8 2 -12 -4 -9 -6 3 -10 10 -10 16 0 14 7 11 14
-7z m2215 -25 c69 -23 139 -48 154 -55 16 -8 39 -14 51 -14 13 0 61 -17 107
-39 46 -21 104 -42 129 -46 25 -4 52 -11 60 -16 22 -12 3 -11 -65 6 -33 8 -64
14 -70 15 -12 0 31 -31 65 -47 l25 -12 -25 2 c-16 1 -24 -3 -22 -11 4 -21 -27
-26 -48 -7 -11 10 -42 20 -70 23 -28 2 -53 9 -56 13 -3 5 -27 9 -54 9 -27 0
-52 5 -55 10 -4 6 -16 8 -26 5 -11 -4 -25 -2 -32 3 -13 11 -17 12 -48 12 -15
0 -19 5 -15 15 4 10 -1 15 -15 15 -12 0 -33 6 -47 14 -15 8 -47 22 -72 31 -25
9 -53 21 -63 27 -11 5 -21 7 -24 4 -3 -3 -19 2 -35 10 l-30 16 53 28 c30 16
65 29 78 30 13 0 80 -19 150 -41z m546 31 c7 -12 -12 -12 -40 0 -18 8 -17 9 7
9 15 1 30 -3 33 -9z m-260 -21 c31 -6 21 -7 -40 -4 -44 3 -93 9 -110 15 -36
12 86 3 150 -11z m-4380 -9 c8 -13 -15 -13 -35 0 -12 8 -11 10 7 10 12 0 25
-4 28 -10z m-567 -49 c36 -80 29 -81 -53 -6 l-60 55 45 0 c44 0 46 -1 68 -49z
m2321 14 c15 -16 14 -17 -4 -12 -11 3 -35 8 -52 12 -18 4 -33 13 -33 20 0 18
67 3 89 -20z m1821 25 c12 -8 11 -10 -7 -10 -13 0 -23 5 -23 10 0 13 11 13 30
0z m-3999 -14 c24 -10 41 -28 56 -60 l23 -46 -29 0 c-15 0 -56 3 -91 7 -58 6
-63 8 -73 37 -6 17 -10 34 -9 39 1 4 -2 7 -7 7 -5 0 -11 7 -15 15 -4 12 5 15
53 15 32 0 74 -6 92 -14z m-1383 -35 c15 -22 15 -23 -2 -20 -10 2 -26 15 -34
28 -15 22 -15 23 2 20 10 -2 26 -15 34 -28z m2981 20 c20 5 60 4 91 -1 30 -5
100 -12 155 -15 55 -4 101 -8 102 -9 2 -2 4 -20 6 -42 1 -21 7 -43 12 -47 6
-5 -44 -5 -110 -1 -66 3 -150 8 -187 9 -75 2 -90 11 -119 66 -23 46 -24 53 -3
41 10 -5 32 -6 53 -1z m3355 -1 c32 -12 34 -30 4 -29 -14 0 -17 3 -9 6 10 4 8
9 -10 19 -28 16 -21 18 15 4z m-2613 -17 c13 -16 12 -17 -3 -4 -17 13 -22 21
-14 21 2 0 10 -8 17 -17z m-2547 -92 c47 -46 86 -85 86 -87 0 -19 -40 11 -115
87 -50 50 -82 89 -73 87 9 -1 55 -41 102 -87z m2251 34 l59 -55 -52 0 c-53 0
-53 0 -72 43 -39 85 -17 90 65 12z m-1925 15 c21 -30 21 -30 1 -30 -22 0 -46
34 -36 50 9 14 11 13 35 -20z m420 15 c14 -16 10 -18 -14 -9 -9 3 -16 10 -16
15 0 14 16 11 30 -6z m-850 -10 c7 -9 11 -17 9 -19 -16 -14 -621 -206 -630
-200 -8 4 -9 3 -5 -4 4 -7 2 -12 -3 -12 -6 0 -11 5 -11 10 0 6 -7 10 -16 10
-13 0 -14 -3 -5 -13 15 -19 -53 -41 -81 -26 -10 5 -18 11 -18 14 0 9 161 56
171 49 7 -4 9 -3 6 2 -4 8 532 200 564 203 4 1 12 -6 19 -14z m2654 -14 c-2
-3 -12 3 -22 13 -16 17 -16 18 5 5 12 -7 20 -15 17 -18z m1720 20 c8 -12 -18
-21 -57 -21 -30 1 -31 1 -13 15 22 17 62 20 70 6z m-2722 -78 c49 -30 90 -58
92 -61 2 -4 -77 -7 -176 -6 l-181 1 -33 57 c-38 64 -39 67 -21 60 7 -2 24 0
38 5 13 5 62 7 109 4 82 -5 88 -8 172 -60z m1137 26 c-8 -5 -20 -2 -31 8 -28
26 -21 35 13 17 24 -12 29 -18 18 -25z m-3874 11 c10 -11 14 -20 8 -20 -5 0
-18 9 -28 20 -10 11 -14 20 -8 20 5 0 18 -9 28 -20z m53 8 c16 -16 15 -28 -1
-28 -7 0 -18 9 -25 20 -10 16 -10 20 1 20 7 0 18 -5 25 -12z m-204 -54 c31
-56 31 -57 5 -49 -20 7 -20 6 -3 -19 9 -15 15 -28 13 -30 -4 -3 -63 -23 -445
-155 l-202 -69 -24 68 -25 69 101 36 c56 19 202 71 326 114 124 43 226 79 227
80 1 0 13 -20 27 -45z m1330 -13 l58 -59 -53 -20 c-30 -11 -83 -29 -119 -40
-36 -11 -184 -59 -329 -106 -145 -47 -272 -86 -281 -86 -10 0 -30 19 -46 43
-49 71 -49 74 3 91 55 19 56 19 48 6 -3 -6 1 -7 9 -4 9 3 14 9 11 14 -2 4 114
47 258 95 144 49 285 97 312 106 28 10 55 18 60 19 6 0 37 -26 69 -59z m3960
43 c3 -8 2 -12 -4 -9 -6 3 -10 10 -10 16 0 14 7 11 14 -7z m50 -2 c3 -5 -1 -9
-9 -9 -8 0 -15 4 -15 9 0 4 4 8 9 8 6 0 12 -4 15 -8z m536 -1 l25 -8 -27 -13
c-23 -11 -31 -10 -51 2 -12 9 -32 18 -42 21 -11 2 0 5 25 5 25 0 56 -3 70 -7z
m-4327 -8 c-13 -2 -33 -2 -45 0 -13 2 -3 4 22 4 25 0 35 -2 23 -4z m62 -13 c3
-5 -1 -10 -10 -10 -9 0 -13 5 -10 10 3 6 8 10 10 10 2 0 7 -4 10 -10z m1775
-5 c41 -3 85 -8 98 -10 12 -3 65 -7 118 -10 94 -4 145 -15 70 -15 -24 0 -35
-4 -30 -11 3 -6 17 -8 30 -5 13 4 24 2 24 -3 0 -6 6 -8 14 -5 8 3 17 1 21 -5
3 -7 -2 -11 -14 -11 -11 0 -23 5 -27 11 -4 7 -10 7 -16 1 -13 -13 -2 -32 18
-32 8 0 14 -4 14 -10 0 -5 10 -10 23 -9 21 0 21 1 2 9 -19 8 -19 9 1 9 14 1
24 -7 27 -19 4 -17 12 -19 46 -16 27 3 39 0 35 -6 -5 -7 -43 -8 -118 -3 -61 4
-149 9 -196 11 -47 1 -119 8 -160 13 -41 6 -92 13 -114 15 -21 2 -42 10 -47
18 -5 7 -14 13 -21 13 -7 1 -12 7 -10 14 1 6 -4 22 -13 34 -8 12 -15 25 -15
29 0 8 84 5 240 -7z m765 -13 c24 -14 31 -22 23 -30 -12 -12 -91 24 -82 39 8
13 20 11 59 -9z m410 -2 l30 -7 -26 -7 c-16 -5 -39 -2 -60 8 l-34 14 30 0 c17
0 44 -4 60 -8z m-4357 -20 c7 -11 11 -20 9 -20 -2 0 -12 9 -22 20 -10 11 -14
20 -9 20 5 0 15 -9 22 -20z m56 5 c3 -8 2 -15 -3 -15 -5 0 -14 7 -21 15 -10
12 -10 15 3 15 8 0 17 -7 21 -15z m1986 -29 c0 -6 -7 -2 -15 8 -8 11 -15 25
-15 30 0 6 7 2 15 -8 8 -11 15 -25 15 -30z m2620 -11 c69 -24 138 -50 153 -58
26 -13 21 -14 -65 -10 -98 5 -187 30 -283 80 -72 37 -72 39 3 35 46 -2 106
-17 192 -47z m-3184 -5 c28 -54 29 -60 8 -60 -10 0 -14 6 -11 14 5 12 2 12
-20 1 -22 -12 -29 -11 -49 2 -29 18 -32 28 -5 13 29 -15 39 -12 16 6 -19 15
-18 16 15 9 34 -6 34 -6 10 8 -18 10 -29 11 -39 3 -11 -8 -15 -7 -19 3 -3 10
-6 10 -12 2 -5 -9 -11 -7 -21 5 -9 12 -10 15 -1 10 6 -4 12 -4 12 1 0 4 18 8
39 8 22 1 37 -3 35 -7 -3 -4 2 -8 10 -8 20 0 10 27 -12 34 -13 4 -12 4 2 3 12
-1 28 -20 42 -47z m4129 30 c11 -4 -16 -5 -60 -2 -44 2 -87 8 -95 13 -18 9
126 -1 155 -11z m224 1 c22 -11 30 -21 22 -25 -10 -6 -81 29 -81 40 0 9 27 2
59 -15z m-4450 -165 c80 -80 137 -144 127 -142 -35 5 -303 286 -273 286 1 0
67 -65 146 -144z m2551 98 c0 -12 -33 -1 -57 21 l-28 24 43 -20 c23 -12 42
-23 42 -25z m-1088 15 c12 -7 28 -17 35 -23 6 -6 41 -29 77 -50 35 -22 69 -49
74 -60 9 -21 6 -21 -129 -24 -128 -3 -141 -2 -165 17 -15 12 -31 21 -36 21 -6
0 -23 10 -38 23 -16 12 -41 31 -57 42 l-28 20 145 5 145 6 -161 2 c-143 2
-163 4 -178 21 -16 18 -13 18 138 15 97 -2 164 -7 178 -15z m1242 -12 c10 -8
16 -19 12 -25 -5 -8 -18 -3 -41 15 -55 44 -28 53 29 10z m716 18 c33 -19 21
-19 -21 0 -19 8 -27 14 -19 14 8 0 26 -6 40 -14z m-2330 1 c0 -11 -19 -15 -25
-6 -3 5 1 10 9 10 9 0 16 -2 16 -4z m-2420 -26 c6 -11 9 -20 7 -20 -2 0 -12 9
-22 20 -10 11 -13 20 -7 20 6 0 16 -9 22 -20z m60 -5 c14 -19 14 -19 -2 -6
-10 7 -18 18 -18 24 0 6 1 8 3 6 1 -2 9 -13 17 -24z m2065 -15 c12 -19 -12
-10 -31 11 -19 22 -19 22 3 10 12 -6 25 -16 28 -21z m830 10 c10 -11 14 -20 9
-20 -5 0 -15 9 -22 20 -7 11 -11 20 -9 20 2 0 12 -9 22 -20z m-3143 -60 c21
-36 34 -68 30 -72 -8 -8 -651 -228 -667 -228 -11 0 -61 138 -53 146 9 8 634
222 643 220 6 -1 27 -31 47 -66z m3116 42 l15 -23 -39 22 c-53 30 -53 31 -20
27 16 -2 35 -13 44 -26z m136 19 c7 -10 87 -20 236 -27 153 -7 223 -16 227
-31 3 -7 -10 -14 -34 -17 -21 -2 28 -3 109 0 82 2 155 1 163 -3 13 -4 65 -90
65 -106 0 -1 -16 -1 -35 1 -20 2 -48 -1 -63 -7 -35 -14 -82 -15 -277 -5 -175
8 -205 17 -261 75 -16 17 -40 36 -54 42 -23 10 -20 12 30 17 l55 5 -57 7 c-32
4 -70 15 -85 26 -16 10 -35 22 -43 25 -12 4 -12 6 2 6 9 1 19 -3 22 -8z m645
5 c-11 -9 -69 -14 -69 -6 0 6 17 10 37 10 20 0 34 -2 32 -4z m2290 -10 c24
-13 24 -14 3 -20 -13 -4 -35 1 -59 14 l-38 20 35 0 c19 -1 46 -7 59 -14z
m-2984 -6 c3 -6 -1 -7 -9 -4 -18 7 -21 14 -7 14 6 0 13 -4 16 -10z m50 -20 c3
-5 1 -10 -4 -10 -6 0 -11 5 -11 10 0 6 2 10 4 10 3 0 8 -4 11 -10z m945 -26
c0 -2 -11 2 -25 8 -14 6 -25 15 -25 20 0 5 11 1 25 -8 14 -9 25 -18 25 -20z
m1244 20 c6 -15 4 -15 -11 -3 -10 7 -20 15 -22 16 -2 2 3 3 11 3 9 0 19 -7 22
-16z m-2218 -15 c3 -5 13 -9 23 -9 21 0 126 -103 111 -108 -24 -8 -210 104
-210 126 0 11 69 2 76 -9z m1149 12 c17 -7 14 -10 -18 -20 -44 -15 -61 -6 -33
15 22 16 23 16 51 5z m730 -34 c67 -29 76 -30 218 -32 98 -1 151 -5 159 -13 6
-6 10 -14 7 -16 -7 -7 -225 -36 -269 -36 -26 0 -74 16 -142 48 -57 27 -124 57
-150 67 -27 10 -48 18 -48 19 0 1 35 0 78 -2 59 -3 94 -11 147 -35z m178 26
c-7 -2 -21 -2 -30 0 -10 3 -4 5 12 5 17 0 24 -2 18 -5z m1107 -28 l55 -19 -34
-7 c-42 -9 -135 26 -111 41 8 6 20 8 25 6 6 -2 35 -11 65 -21z m-6103 9 c-3
-3 -12 -4 -19 -1 -8 3 -5 6 6 6 11 1 17 -2 13 -5z m4931 -1 c-10 -2 -26 -2
-35 0 -10 3 -2 5 17 5 19 0 27 -2 18 -5z m-2813 -13 c3 -6 -1 -7 -9 -4 -18 7
-21 14 -7 14 6 0 13 -4 16 -10z m-2127 -51 c12 -19 11 -19 -8 -9 -11 6 -20 15
-20 20 0 17 15 11 28 -11z m2967 -17 c-8 -8 -43 9 -49 24 -5 12 -1 12 24 -2
16 -10 28 -20 25 -22z m116 21 c13 -16 12 -17 -3 -4 -17 13 -22 21 -14 21 2 0
10 -8 17 -17z m1157 11 c31 -9 28 -21 -7 -26 -17 -2 -44 3 -63 13 l-33 18 40
0 c22 1 50 -2 63 -5z m1852 -50 c0 -4 -42 2 -47 7 -2 1 -7 2 -12 3 -6 0 -16 7
-23 14 -8 8 2 7 35 -4 26 -9 47 -18 47 -20z m-665 0 l80 -25 -65 6 c-36 3 -70
6 -77 7 -7 1 -10 5 -7 10 3 4 0 8 -5 8 -6 0 -11 5 -11 10 0 6 1 10 3 10 1 -1
38 -12 82 -26z m-5640 -5 c4 -11 5 -22 3 -23 -1 -2 -67 -25 -146 -51 -79 -26
-142 -49 -139 -51 2 -2 70 19 152 46 82 27 149 49 150 47 17 -23 76 -139 72
-143 -5 -6 -720 -245 -722 -241 -4 9 -45 145 -45 149 0 4 8 9 18 11 13 4 12 5
-4 6 -18 1 -41 28 -32 36 4 4 671 234 680 234 4 1 10 -8 13 -20z m3123 9 c6
-7 22 -40 36 -72 24 -53 24 -58 6 -41 -11 10 -17 22 -14 26 9 15 -13 10 -26
-6 -25 -30 -71 -18 -163 45 l-89 60 120 0 c83 0 123 -4 130 -12z m1248 -28
c35 -15 44 -24 36 -32 -14 -14 -62 5 -88 33 -22 24 -7 24 52 -1z m210 -6 c27
-21 32 -30 23 -40 -9 -11 -16 -9 -41 11 -16 14 -34 25 -40 25 -6 0 -6 6 2 15
16 19 15 20 56 -11z m-6196 -4 c0 -11 -4 -20 -10 -20 -5 0 -10 9 -10 20 0 11
5 20 10 20 6 0 10 -9 10 -20z m4945 -39 c44 -29 79 -57 77 -63 -1 -5 2 -7 7
-4 11 7 136 -70 136 -84 0 -4 4 -12 9 -17 5 -5 6 -3 2 5 -10 17 5 15 31 -6 22
-17 22 -17 -35 -17 -34 0 -61 5 -67 12 -6 7 -35 13 -67 14 -32 1 -58 6 -58 11
0 5 5 6 10 3 6 -3 10 -1 10 4 0 6 -16 11 -35 11 -40 0 -45 12 -12 29 21 11 21
11 -5 8 -28 -4 -47 17 -25 27 7 4 -3 4 -20 1 -33 -5 -37 0 -36 43 1 6 -4 12
-11 12 -10 0 -36 44 -36 61 0 18 52 -3 125 -50z m2080 47 c35 1 37 -1 15 -8
-33 -10 -128 -12 -171 -2 -33 7 -32 7 21 13 30 3 64 4 75 2 11 -3 38 -5 60 -5z
m-5145 -18 c7 -13 7 -20 1 -20 -6 0 -15 9 -21 20 -7 13 -7 20 -1 20 6 0 15 -9
21 -20z m3091 -11 l24 -20 -30 17 c-39 24 -40 24 -28 24 6 0 21 -9 34 -21z
m605 3 c7 -4 25 -36 41 -72 27 -59 28 -66 12 -67 -11 -1 -16 3 -13 12 6 16
-12 29 -21 15 -3 -5 -17 -10 -31 -10 -14 0 -22 -4 -19 -10 3 -6 18 -8 33 -5
16 3 12 -1 -12 -10 -22 -8 -47 -13 -57 -10 -10 3 -20 2 -22 -2 -3 -4 -25 -8
-49 -8 -23 1 -46 -3 -49 -8 -3 -4 -12 -1 -19 8 -14 16 -3 20 50 15 14 -1 22 2
17 6 -4 4 -32 8 -61 9 -38 0 -61 6 -75 19 -11 10 -24 15 -30 12 -5 -4 -16 2
-23 11 -18 24 -56 45 -68 38 -6 -3 -21 5 -35 19 -13 14 -39 27 -57 29 -18 3
71 3 197 0 163 -3 226 -1 215 6 -12 8 -6 11 25 11 22 0 45 -4 51 -8z m1895
-16 c12 -8 -13 -10 -100 -7 -64 2 -118 6 -121 10 -3 3 -14 8 -25 9 -50 9 -18
10 101 5 71 -3 136 -11 145 -17z m-7457 -85 c-7 -7 -12 3 -18 39 l-6 35 14
-35 c7 -19 12 -37 10 -39z m6116 53 c0 -2 -7 -4 -15 -4 -8 0 -15 4 -15 10 0 5
7 7 15 4 8 -4 15 -8 15 -10z m233 -6 c15 -11 12 -13 -23 -16 -44 -3 -64 4 -55
19 9 13 58 11 78 -3z m1262 -10 c11 -6 31 -20 45 -31 21 -16 21 -18 5 -14 -11
4 -40 9 -65 12 -24 3 -61 10 -82 15 -20 6 -63 10 -95 9 -56 -2 -143 15 -143
28 0 10 313 -8 335 -19z m-5687 -18 c7 -11 8 -20 2 -20 -5 0 -14 9 -20 20 -6
11 -7 20 -3 20 5 0 14 -9 21 -20z m4239 -6 c-3 -3 -12 -4 -19 -1 -8 3 -5 6 6
6 11 1 17 -2 13 -5z m1108 -8 c19 -8 35 -17 35 -20 0 -5 -71 22 -79 30 -9 8
11 4 44 -10z m-7278 -63 c-3 -10 -5 -4 -5 12 0 17 2 24 5 18 2 -7 2 -21 0 -30z
m7371 16 c14 -8 13 -9 -8 -5 -14 3 -42 6 -62 6 -21 0 -38 4 -38 10 0 12 86 4
108 -11z m322 11 c0 -5 -5 -10 -11 -10 -5 0 -7 5 -4 10 3 6 8 10 11 10 2 0 4
-4 4 -10z m60 -16 l25 -15 -25 7 c-14 3 -29 10 -34 15 -16 14 6 10 34 -7z
m-6008 -43 c70 -119 138 -238 143 -251 4 -12 -73 -41 -380 -143 -212 -71 -392
-127 -399 -124 -15 6 -121 306 -111 315 9 9 686 240 707 241 9 1 26 -16 40
-38z m-815 -76 c18 -54 31 -101 28 -103 -3 -3 0 -11 5 -18 6 -6 35 -84 64
-172 42 -124 51 -162 41 -166 -10 -3 -20 12 -33 47 -31 81 -162 493 -162 507
0 6 5 10 12 8 6 -2 26 -49 45 -103z m1061 93 c7 -7 12 -16 12 -20 0 -15 -15
-8 -28 12 -13 22 -3 27 16 8z m2379 -14 c-3 -3 -12 -4 -19 -1 -8 3 -5 6 6 6
11 1 17 -2 13 -5z m-4357 -51 c0 -44 -5 -41 -14 10 -5 27 -4 37 3 32 6 -3 11
-22 11 -42z m5063 40 c-7 -2 -19 -2 -25 0 -7 3 -2 5 12 5 14 0 19 -2 13 -5z
m171 -21 c3 -5 -1 -9 -9 -9 -8 0 -12 4 -9 9 3 4 7 8 9 8 2 0 6 -4 9 -8z
m-3186 -62 c18 -29 -3 -24 -22 5 -11 16 -12 23 -3 20 7 -3 18 -14 25 -25z
m3059 14 c-3 -3 -12 -4 -19 -1 -8 3 -5 6 6 6 11 1 17 -2 13 -5z m-5097 -56 c0
-36 -4 -35 -14 5 -4 16 -2 27 4 27 5 0 10 -14 10 -32z m-3 -80 c-3 -8 -6 -5
-6 6 -1 11 2 17 5 13 3 -3 4 -12 1 -19z m4627 13 c4 -5 -3 -7 -14 -4 -23 6
-26 13 -6 13 8 0 17 -4 20 -9z m-2473 -73 c15 -28 5 -21 -21 15 -15 20 -17 27
-6 18 9 -8 22 -23 27 -33z m-2267 6 c25 -10 19 -26 -6 -19 -31 10 -47 25 -26
25 9 0 23 -3 32 -6z m76 -24 c0 -5 -4 -10 -10 -10 -5 0 -10 5 -10 10 0 6 5 10
10 10 6 0 10 -4 10 -10z m1975 -76 c22 -39 47 -79 55 -89 8 -10 41 -63 72
-119 l57 -100 -77 -28 c-42 -15 -85 -26 -95 -24 -9 2 -15 1 -12 -3 6 -11 -73
-33 -87 -25 -6 4 -8 3 -4 -4 8 -13 -189 -76 -206 -66 -6 4 -8 3 -5 -3 7 -11
-158 -67 -173 -58 -5 3 -10 2 -10 -3 0 -10 -176 -71 -203 -70 -10 1 -16 7 -13
14 3 7 1 14 -4 16 -5 2 -38 87 -74 190 l-64 187 271 91 c150 50 322 108 382
130 61 21 119 38 130 37 13 -1 33 -26 60 -73z m-2034 36 c21 -12 27 -60 7 -60
-32 1 -60 44 -41 63 8 9 11 9 34 -3z m69 -46 c0 -21 -4 -33 -10 -29 -12 7 -10
65 2 65 4 0 8 -16 8 -36z m2250 -5 c15 -28 5 -23 -15 7 -9 15 -12 23 -6 20 6
-4 16 -16 21 -27z m-2643 -21 c-3 -8 -6 -5 -6 6 -1 11 2 17 5 13 3 -3 4 -12 1
-19z m433 -24 c0 -14 -4 -22 -10 -19 -5 3 -10 17 -10 31 0 14 4 22 10 19 6 -3
10 -17 10 -31z m-104 -2 c6 -4 13 -19 16 -34 4 -21 1 -28 -11 -28 -25 0 -39
13 -46 43 -6 22 -4 27 11 27 11 0 24 -4 30 -8z m-346 -37 c0 -14 -3 -25 -7
-25 -5 0 -8 -41 -8 -91 l0 -91 -235 -84 c-129 -46 -242 -86 -251 -89 -13 -5
-13 9 5 116 l21 121 230 83 c127 46 233 84 238 84 4 1 7 -10 7 -24z m420 -26
c0 -10 -4 -19 -10 -19 -5 0 -10 12 -10 26 0 14 4 23 10 19 6 -3 10 -15 10 -26z
m2321 -16 c13 -16 12 -17 -3 -4 -10 7 -18 15 -18 17 0 8 8 3 21 -13z m-2396
-25 c18 -8 25 -19 25 -40 0 -28 -13 -35 -38 -20 -7 5 -10 16 -6 25 3 10 1 17
-5 17 -6 0 -11 7 -11 15 0 18 2 18 35 3z m115 -8 c0 -5 -2 -10 -4 -10 -3 0 -8
5 -11 10 -3 6 -1 10 4 10 6 0 11 -4 11 -10z m1119 -224 c39 -115 71 -211 71
-212 0 -1 -6 -4 -14 -7 -11 -5 -31 44 -86 208 -63 188 -78 257 -50 228 5 -4
40 -102 79 -217z m15 -228 c-12 -19 -24 -4 -44 58 -12 36 -24 63 -27 60 -3 -2
1 -22 8 -43 7 -21 14 -50 14 -65 1 -25 -5 -29 -57 -47 -33 -11 -65 -18 -73
-14 -8 3 -15 0 -15 -6 0 -6 -7 -8 -15 -5 -8 4 -15 1 -15 -5 0 -7 -6 -11 -12
-10 -32 4 -62 -2 -51 -9 8 -5 -26 -20 -88 -40 -55 -18 -104 -30 -110 -27 -5 4
-9 2 -9 -4 0 -10 -241 -94 -248 -86 -3 3 0 5 8 5 9 0 9 4 2 13 -5 6 -15 48
-21 92 -7 44 -16 100 -21 125 -5 25 -12 76 -15 115 -4 38 -8 73 -11 76 -3 6
604 219 625 219 6 0 11 6 11 14 0 8 6 16 13 19 13 4 160 -419 151 -435z
m-1177 390 c-3 -7 -5 -2 -5 12 0 14 2 19 5 13 2 -7 2 -19 0 -25z m40 -45 c-3
-10 -5 -2 -5 17 0 19 2 27 5 18 2 -10 2 -26 0 -35z m-77 -43 c0 -34 0 -34 -35
-18 -19 9 -25 19 -25 45 l0 34 30 -16 c23 -12 30 -22 30 -45z m-200 16 c0 -3
-4 -8 -10 -11 -5 -3 -10 -1 -10 4 0 6 5 11 10 11 6 0 10 -2 10 -4z m250 -32
c0 -14 -4 -23 -9 -20 -7 5 -8 23 -2 44 4 12 11 -3 11 -24z m38 -45 c-3 -20 -5
-19 -9 9 -3 20 -2 29 4 23 5 -5 7 -19 5 -32z m2127 15 c6 -10 25 -45 43 -76
36 -63 35 -78 -6 -78 l-27 1 27 12 c36 16 23 43 -16 33 -14 -3 -26 -2 -26 3 0
5 9 11 20 14 13 3 18 10 14 21 -3 9 -9 14 -13 11 -4 -2 -21 -6 -37 -9 -27 -5
-28 -4 -10 9 23 18 31 46 10 38 -8 -3 -11 -9 -8 -14 3 -5 -8 -14 -24 -20 -17
-6 -33 -17 -36 -26 -5 -12 1 -14 36 -9 l43 6 -45 -22 c-26 -12 -68 -22 -100
-23 -30 -1 -68 -8 -84 -14 -23 -9 -31 -9 -37 0 -6 10 -18 8 -51 -4 -50 -19
-93 -23 -68 -7 28 19 115 41 118 30 6 -17 22 -11 22 8 0 14 2 15 10 2 7 -12
12 -12 22 -2 6 6 8 12 3 12 -6 0 -3 5 5 11 11 8 9 8 -10 2 -14 -4 -40 -8 -57
-8 -18 0 -33 -3 -33 -7 0 -5 -5 -8 -11 -8 -5 0 -8 4 -5 9 4 5 -3 7 -15 4 -12
-3 -16 -9 -10 -12 6 -4 -5 -7 -24 -7 -19 0 -35 3 -35 6 0 3 29 15 65 27 36 12
63 17 59 12 -8 -13 11 -11 66 7 27 9 48 21 47 26 -2 10 96 49 117 47 6 -1 20
-1 31 0 17 1 18 3 5 12 -13 9 -13 10 0 6 8 -2 20 -12 25 -23z m-2233 -26 c14
-12 34 -78 23 -78 -2 0 -15 4 -29 10 -21 8 -26 16 -26 45 0 37 7 42 32 23z
m75 -70 c-3 -8 -6 -5 -6 6 -1 11 2 17 5 13 3 -3 4 -12 1 -19z m41 -29 c-3 -8
-7 -3 -11 10 -4 17 -3 21 5 13 5 -5 8 -16 6 -23z m-104 -30 c16 -15 -1 -22
-30 -12 -39 13 -46 38 -8 29 16 -4 33 -12 38 -17z m1807 7 c-17 -10 -20 -15
-10 -18 8 -3 1 -5 -16 -4 -16 0 -46 -4 -65 -8 -20 -5 -31 -5 -27 0 12 12 98
42 122 43 18 0 17 -1 -4 -13z m379 -6 c-45 -19 -90 -26 -76 -12 12 12 69 30
96 31 19 0 15 -4 -20 -19z m-85 2 c-17 -14 -114 -44 -127 -40 -7 3 12 14 42
26 55 21 102 29 85 14z m-425 -8 c0 -5 -47 -26 -87 -38 -45 -14 -22 11 25 26
54 19 62 20 62 12z m-1605 -14 c-3 -5 -12 -10 -18 -10 -7 0 -6 4 3 10 19 12
23 12 15 0z m1890 1 c-14 -12 -116 -43 -123 -37 -2 3 1 8 9 11 99 36 133 44
114 26z m-125 -11 c0 -5 -21 -16 -47 -24 -27 -8 -56 -17 -65 -21 -10 -4 -18
-3 -18 1 0 5 26 19 58 31 67 25 72 26 72 13z m415 1 c-15 -13 -115 -44 -122
-37 -3 3 0 8 8 11 99 36 133 44 114 26z m74 -5 c-2 -2 -18 -7 -34 -10 l-30 -6
30 14 c26 12 46 14 34 2z m-609 -11 c0 -3 -16 -11 -35 -19 -19 -8 -35 -20 -35
-25 0 -6 -5 -11 -11 -11 -5 0 -8 4 -5 9 4 5 -3 7 -13 4 -12 -3 -17 -11 -14
-19 6 -17 2 -17 53 1 58 21 83 18 40 -4 -46 -24 -100 -36 -100 -22 0 6 -5 11
-11 11 -5 0 -7 -5 -3 -11 4 -8 -1 -9 -16 -4 -15 5 -20 4 -16 -4 4 -6 2 -9 -7
-5 -7 2 -25 0 -39 -5 -15 -6 -29 -6 -34 -1 -6 6 -30 3 -59 -5 -62 -19 -83 -13
-32 9 55 24 102 32 92 16 -6 -9 -1 -10 16 -5 69 20 88 29 76 37 -16 10 -50 10
-43 0 2 -4 -22 -7 -54 -6 -33 0 -58 -2 -56 -5 2 -3 -17 -7 -43 -8 -49 -2 -47
0 37 28 29 10 50 14 47 9 -9 -15 20 -12 65 6 22 9 50 14 63 10 12 -3 43 1 67
9 48 15 70 18 70 10z m400 -4 c-26 -15 -120 -40 -120 -32 0 9 86 39 115 40 16
0 17 -1 5 -8z m-2107 -25 c19 -14 24 -76 6 -76 -29 0 -49 22 -49 55 0 37 13
44 43 21z m1932 -6 c-65 -24 -93 -24 -35 0 25 10 54 18 65 18 11 0 -2 -8 -30
-18z m-1809 -11 c19 -22 19 -22 -3 -8 -13 8 -23 17 -23 21 0 12 6 9 26 -13z
m1720 12 c-7 -11 -93 -41 -115 -41 -22 1 12 20 64 36 50 16 58 16 51 5z m406
-6 c-47 -21 -102 -35 -102 -26 0 9 87 39 115 40 13 0 9 -4 -13 -14z m98 6 c0
-9 -52 -22 -59 -15 -4 3 37 22 52 23 4 1 7 -3 7 -8z m-210 -10 c0 -10 -105
-44 -121 -39 -8 3 87 40 119 47 1 1 2 -3 2 -8z m-145 -20 c-7 -12 -104 -45
-111 -38 -3 3 19 14 48 26 60 23 72 25 63 12z m-681 -110 c39 -117 43 -140 21
-101 l-15 25 5 -30 c3 -16 -13 22 -35 85 -45 129 -45 130 -26 130 9 0 27 -39
50 -109z m-70 42 c10 -32 20 -66 22 -75 4 -12 0 -18 -10 -18 -16 0 -21 16 -18
53 1 10 -2 16 -7 12 -11 -6 -35 61 -26 75 12 20 22 9 39 -47z m146 53 c0 -2
-7 -7 -16 -10 -8 -3 -12 -2 -9 4 6 10 25 14 25 6z m475 -5 c-15 -13 -115 -44
-122 -37 -3 3 0 8 8 11 99 36 133 44 114 26z m435 5 c0 -2 -27 -13 -60 -24
-33 -12 -60 -17 -60 -13 0 5 21 15 48 24 48 16 72 20 72 13z m80 -8 c0 -6 -3
-9 -6 -5 -3 3 -17 2 -30 -3 -30 -12 -32 -2 -1 10 30 12 37 12 37 -2z m-640 -7
c0 -10 -121 -54 -128 -46 -8 8 -2 11 63 33 72 25 65 24 65 13z m420 1 c0 -10
-109 -46 -117 -39 -3 4 57 28 115 46 1 1 2 -3 2 -7z m-555 -21 c-7 -12 -115
-44 -123 -37 -2 3 1 7 9 10 8 2 32 11 54 19 47 18 68 21 60 8z m425 5 c0 -6
-123 -47 -127 -42 -2 2 20 12 49 24 52 20 78 26 78 18z m-845 -15 c-3 -5 -22
-15 -42 -22 -27 -9 -32 -14 -21 -20 8 -5 29 -4 47 1 39 11 42 -6 4 -21 -25 -9
-26 -11 -10 -20 9 -6 26 -7 37 -4 11 4 20 2 20 -2 0 -14 -108 -45 -132 -38
-12 5 -18 3 -14 -3 3 -5 -1 -12 -9 -16 -8 -3 -15 0 -15 7 0 7 -7 3 -15 -7 -8
-11 -15 -16 -15 -10 0 12 -108 9 -142 -5 -15 -5 -30 -6 -33 -2 -2 5 6 12 20
15 14 4 25 13 25 21 0 8 5 15 11 15 5 0 7 -4 4 -10 -9 -15 12 -12 27 3 7 8 19
13 28 12 8 -1 9 0 2 2 -7 3 -9 9 -6 15 5 7 2 8 -7 2 -16 -10 -21 -11 -74 -19
-38 -5 -37 -4 15 15 30 11 61 18 68 15 8 -3 34 2 58 10 54 18 78 19 68 3 -4
-7 -3 -8 4 -4 17 10 15 26 -3 26 -31 0 -14 17 33 32 56 19 75 21 67 9z m290
-10 c-12 -11 -73 -31 -93 -31 -21 0 -6 13 31 27 38 14 75 17 62 4z m415 5 c0
-2 -27 -13 -60 -24 -33 -12 -60 -17 -60 -13 0 4 21 15 48 23 49 17 72 21 72
14z m395 -16 c-27 -10 -59 -18 -70 -18 -11 0 3 8 30 18 28 10 59 18 70 18 11
0 -2 -8 -30 -18z m111 11 c-6 -9 -46 -22 -46 -15 0 3 10 9 23 14 29 11 29 11
23 1z m-641 -10 c-7 -13 -102 -44 -118 -38 -9 3 31 19 121 46 2 1 1 -3 -3 -8z
m430 0 c-6 -11 -115 -44 -122 -38 -2 3 22 14 54 25 70 24 76 25 68 13z m-2176
-14 c6 -8 14 -28 17 -45 5 -27 3 -32 -12 -32 -31 0 -41 13 -46 53 -3 30 -1 37
13 37 9 0 22 -6 28 -13z m1586 -17 c-47 -21 -104 -35 -92 -23 11 11 98 41 117
41 8 0 -3 -8 -25 -18z m455 16 c0 -6 -123 -47 -127 -42 -2 2 22 13 54 24 62
22 73 24 73 18z m-575 -31 c-37 -15 -103 -30 -93 -20 10 11 81 34 103 34 15
-1 13 -4 -10 -14z m435 11 c0 -2 -27 -13 -60 -24 -33 -12 -60 -17 -60 -13 0 5
21 15 48 24 48 16 72 20 72 13z m440 0 c0 -2 -27 -13 -60 -25 -33 -11 -58 -16
-55 -11 8 13 115 46 115 36z m75 -6 c-3 -5 -14 -10 -23 -9 -14 0 -13 2 3 9 27
11 27 11 20 0z m-649 -9 c-8 -12 -115 -46 -122 -38 -3 2 21 14 53 25 67 24 76
25 69 13z m384 -22 c-30 -11 -59 -18 -65 -16 -13 5 74 35 100 35 11 1 -5 -8
-35 -19z m-545 -8 c-51 -23 -104 -36 -90 -23 12 12 94 41 115 41 8 0 -3 -8
-25 -18z m455 14 c0 -7 -43 -23 -78 -30 -19 -4 40 23 76 34 1 1 2 -1 2 -4z
m-560 -14 c0 -12 -96 -44 -113 -38 -9 3 44 25 111 46 1 1 2 -3 2 -8z m420 -5
c0 -2 -28 -14 -62 -25 -67 -23 -69 -11 -3 13 41 15 65 19 65 12z m525 -6 c-3
-5 -12 -10 -18 -10 -7 0 -6 4 3 10 19 12 23 12 15 0z m-1139 -138 c-3 -2 -12
21 -22 52 -10 30 -21 53 -25 51 -6 -4 -6 13 1 35 1 3 12 -26 26 -64 13 -38 22
-71 20 -74z m479 129 c-7 -13 -102 -44 -118 -38 -6 2 15 13 48 25 69 24 78 25
70 13z m535 -6 c-46 -18 -64 -17 -25 0 17 8 37 14 45 14 8 0 -1 -7 -20 -14z
m-135 -15 c-27 -10 -57 -18 -65 -18 -8 0 8 8 35 18 28 10 57 18 65 18 8 0 -7
-8 -35 -18z m-1350 2 c-14 -13 -93 -42 -112 -42 -25 0 -6 13 45 32 52 18 81
23 67 10z m385 0 c0 -8 -89 -42 -111 -42 -34 0 21 25 109 49 1 1 2 -2 2 -7z
m425 -1 c-14 -12 -107 -42 -113 -36 -5 4 28 19 78 35 35 11 46 12 35 1z
m-1625 -54 c0 -12 3 -33 7 -46 5 -21 3 -23 -18 -16 -33 10 -36 14 -44 62 l-7
43 31 -11 c22 -8 31 -17 31 -32z m670 29 c-27 -15 -99 -32 -89 -22 8 9 81 35
99 35 8 0 4 -6 -10 -13z m410 10 c0 -7 -123 -46 -128 -41 -7 7 -4 9 43 27 38
15 85 23 85 14z m394 -10 c-35 -16 -102 -31 -93 -22 9 10 83 35 104 35 14 0
11 -4 -11 -13z m456 10 c0 -7 -101 -39 -106 -34 -2 3 17 12 43 21 52 17 63 19
63 13z m-975 -16 c-8 -12 -114 -44 -122 -36 -3 3 0 8 8 11 103 37 125 42 114
25z m1020 0 c-3 -5 -14 -10 -23 -9 -14 0 -13 2 3 9 27 11 27 11 20 0z m-195
-4 c0 -7 -101 -38 -106 -33 -3 3 14 12 38 20 44 16 68 20 68 13z m445 -5 c-6
-5 -23 -12 -40 -15 -28 -6 -28 -5 5 8 43 18 46 18 35 7z m-1010 -10 c-7 -13
-105 -45 -112 -37 -3 3 0 8 8 11 103 37 113 40 104 26z m133 -66 c0 -5 -6 4
-13 20 -8 17 -14 37 -14 45 0 8 7 -1 14 -20 7 -19 13 -39 13 -45z m297 66
c-14 -12 -107 -42 -113 -36 -3 2 1 7 9 10 101 37 120 42 104 26z m-326 -46 c0
-5 -4 -3 -9 5 -5 8 -9 22 -9 30 0 16 17 -16 18 -35z m771 40 c0 -6 -102 -36
-107 -31 -5 4 75 34 95 35 6 1 12 -1 12 -4z m-1005 -14 c-14 -12 -107 -42
-113 -36 -7 7 -3 9 43 28 44 17 85 22 70 8z m395 -11 c-46 -20 -79 -26 -66
-12 11 11 68 30 91 31 11 0 0 -9 -25 -19z m465 11 c-9 -7 -101 -41 -113 -41
-15 0 14 15 60 31 63 21 65 21 53 10z m195 -1 c-8 -5 -19 -10 -25 -10 -5 0 -3
5 5 10 8 5 20 10 25 10 6 0 3 -5 -5 -10z m-1175 -9 c-13 -12 -115 -44 -121
-38 -3 2 19 13 48 25 58 22 88 27 73 13z m1525 -1 c0 -5 -8 -10 -17 -10 -15 0
-16 2 -3 10 19 12 20 12 20 0z m-680 -4 c0 -7 -101 -38 -106 -33 -3 3 14 12
38 20 44 16 68 20 68 13z m-984 -18 c-30 -17 -106 -38 -106 -29 0 9 85 40 110
40 11 0 9 -3 -4 -11z m404 4 c0 -8 -95 -42 -115 -42 -22 0 50 32 113 49 1 1 2
-3 2 -7z m430 -6 c0 -7 -101 -38 -106 -33 -3 3 14 12 38 20 44 16 68 20 68 13z"/>
<path d="M17953 2533 c9 -2 25 -2 35 0 9 3 1 5 -18 5 -19 0 -27 -2 -17 -5z"/>
<path d="M15600 2386 c0 -2 7 -7 16 -10 8 -3 12 -2 9 4 -6 10 -25 14 -25 6z"/>
<path d="M15901 2245 c13 -12 100 -54 94 -45 -4 6 -24 19 -45 30 -37 19 -59
26 -49 15z"/>
<path d="M17688 2123 c6 -2 18 -2 25 0 6 3 1 5 -13 5 -14 0 -19 -2 -12 -5z"/>
<path d="M15021 2050 c14 -31 19 -36 19 -24 0 6 -7 19 -16 30 -14 18 -14 18
-3 -6z"/>
<path d="M14010 1755 c30 -30 57 -55 59 -55 3 0 -19 25 -49 55 -30 30 -57 55
-59 55 -3 0 19 -25 49 -55z"/>
<path d="M14080 1687 c0 -1 35 -36 78 -77 l77 -75 -75 78 c-69 71 -80 82 -80
74z"/>
<path d="M16058 1693 c23 -2 59 -2 80 0 20 2 1 4 -43 4 -44 0 -61 -2 -37 -4z"/>
<path d="M16193 1693 c9 -2 23 -2 30 0 6 3 -1 5 -18 5 -16 0 -22 -2 -12 -5z"/>
<path d="M12077 1368 c-32 -11 -56 -22 -54 -24 4 -5 127 36 127 42 0 6 -11 4
-73 -18z"/>
<path d="M15915 1480 c3 -5 10 -10 16 -10 5 0 9 5 9 10 0 6 -7 10 -16 10 -8 0
-12 -4 -9 -10z"/>
<path d="M16378 1423 c7 -3 16 -2 19 1 4 3 -2 6 -13 5 -11 0 -14 -3 -6 -6z"/>
<path d="M16512 1404 c-7 -8 -8 -14 -3 -14 10 0 25 19 20 25 -2 1 -10 -3 -17
-11z"/>
<path d="M13120 710 c8 -5 22 -9 30 -9 10 0 8 3 -5 9 -27 12 -43 12 -25 0z"/>
<path d="M12997 689 c7 -7 15 -10 18 -7 3 3 -2 9 -12 12 -14 6 -15 5 -6 -5z"/>
<path d="M13100 670 c0 -5 5 -10 10 -10 6 0 10 5 10 10 0 6 -4 10 -10 10 -5 0
-10 -4 -10 -10z"/>
<path d="M13045 660 c3 -5 16 -10 28 -9 21 0 21 1 2 9 -28 12 -37 12 -30 0z"/>
<path d="M12620 515 c0 -9 5 -15 11 -13 6 2 11 8 11 13 0 5 -5 11 -11 13 -6 2
-11 -4 -11 -13z"/>
<path d="M12595 509 c-4 -6 -5 -12 -2 -15 2 -3 7 2 10 11 7 17 1 20 -8 4z"/>
<path d="M12550 485 c0 -9 6 -12 15 -9 8 4 15 7 15 9 0 2 -7 5 -15 9 -9 3 -15
0 -15 -9z"/>
<path d="M12111 593 c-1 -18 19 -67 25 -61 3 3 -2 21 -10 39 -8 19 -15 29 -15
22z"/>
<path d="M11878 278 c-32 -11 -39 -39 -8 -31 11 3 17 10 13 16 -4 6 0 8 11 4
9 -4 15 -3 11 2 -3 5 1 12 7 14 24 10 -7 5 -34 -5z"/>
<path d="M11673 194 c0 -6 9 -9 19 -6 10 2 18 7 18 11 0 4 -8 7 -18 7 -10 0
-19 -5 -19 -12z"/>
<path d="M11570 189 c0 -5 -4 -8 -9 -5 -13 8 -38 -3 -45 -19 -4 -11 2 -11 36
1 22 7 54 13 70 11 18 -1 33 3 35 11 3 6 -2 12 -11 12 -9 0 -16 -4 -16 -10 0
-6 -9 -6 -26 0 -32 12 -34 12 -34 -1z"/>
<path d="M12291 280 c0 -8 4 -22 9 -30 12 -18 12 -2 0 25 -6 13 -9 15 -9 5z"/>
<path d="M12078 193 c6 -2 18 -2 25 0 6 3 1 5 -13 5 -14 0 -19 -2 -12 -5z"/>
<path d="M12608 4653 c7 -3 16 -2 19 1 4 3 -2 6 -13 5 -11 0 -14 -3 -6 -6z"/>
<path d="M12668 4643 c6 -2 18 -2 25 0 6 3 1 5 -13 5 -14 0 -19 -2 -12 -5z"/>
<path d="M12828 4623 c6 -2 18 -2 25 0 6 3 1 5 -13 5 -14 0 -19 -2 -12 -5z"/>
<path d="M12903 4613 c9 -2 25 -2 35 0 9 3 1 5 -18 5 -19 0 -27 -2 -17 -5z"/>
<path d="M12155 4540 c-13 -6 -15 -9 -5 -9 8 0 22 4 30 9 18 12 2 12 -25 0z"/>
<path d="M11800 4425 c-19 -7 -28 -13 -20 -13 8 0 31 6 50 13 19 7 28 13 20
13 -8 0 -31 -6 -50 -13z"/>
<path d="M11588 4393 c7 -3 16 -2 19 1 4 3 -2 6 -13 5 -11 0 -14 -3 -6 -6z"/>
<path d="M11455 4310 c-13 -6 -15 -9 -5 -9 8 0 22 4 30 9 18 12 2 12 -25 0z"/>
<path d="M10892 4113 c-24 -8 -41 -17 -39 -19 4 -5 97 26 97 32 0 6 -11 4 -58
-13z"/>
<path d="M10700 4040 c-8 -5 -10 -10 -5 -10 6 0 17 5 25 10 8 5 11 10 5 10 -5
0 -17 -5 -25 -10z"/>
<path d="M10240 3859 c0 -5 5 -7 10 -4 6 3 10 8 10 11 0 2 -4 4 -10 4 -5 0
-10 -5 -10 -11z"/>
<path d="M10245 3810 c-3 -5 -1 -10 4 -10 6 0 11 5 11 10 0 6 -2 10 -4 10 -3
0 -8 -4 -11 -10z"/>
<path d="M14320 3640 c0 -5 4 -10 9 -10 6 0 13 5 16 10 3 6 -1 10 -9 10 -9 0
-16 -4 -16 -10z"/>
<path d="M15726 3537 c3 -10 9 -15 12 -12 3 3 0 11 -7 18 -10 9 -11 8 -5 -6z"/>
<path d="M13497 3499 c7 -7 15 -10 18 -7 3 3 -2 9 -12 12 -14 6 -15 5 -6 -5z"/>
<path d="M13537 3479 c7 -7 15 -10 18 -7 3 3 -2 9 -12 12 -14 6 -15 5 -6 -5z"/>
<path d="M13584 3456 c11 -9 24 -16 30 -16 12 0 7 5 -24 19 -24 11 -24 11 -6
-3z"/>
<path d="M13635 3432 c18 -17 146 -84 152 -79 3 3 -33 24 -78 47 -46 23 -79
38 -74 32z"/>
<path d="M15780 3411 c0 -6 4 -13 10 -16 6 -3 7 1 4 9 -7 18 -14 21 -14 7z"/>
<path d="M15800 3377 c0 -11 30 -67 35 -67 6 0 -16 52 -27 65 -4 5 -8 6 -8 2z"/>
<path d="M13834 3325 c11 -8 24 -15 30 -15 5 0 1 7 -10 15 -10 8 -23 14 -29
14 -5 0 -1 -6 9 -14z"/>
<path d="M13894 3296 c11 -9 24 -16 30 -16 12 0 7 5 -24 19 -24 11 -24 11 -6
-3z"/>
<path d="M9980 3240 c-8 -5 -11 -12 -8 -16 10 -9 38 3 38 16 0 12 -10 13 -30
0z"/>
<path d="M15870 3208 c0 -9 5 -20 10 -23 13 -8 13 5 0 25 -8 13 -10 13 -10 -2z"/>
<path d="M9963 3178 c-13 -6 -23 -17 -23 -25 0 -18 35 0 44 22 3 8 4 15 3 14
-1 0 -12 -5 -24 -11z"/>
<path d="M9799 3164 c-12 -14 -11 -16 5 -13 11 2 21 10 24 17 5 17 -13 15 -29
-4z"/>
<path d="M9676 3115 c-3 -8 -2 -15 3 -15 5 0 14 7 21 15 10 12 10 15 -3 15 -8
0 -17 -7 -21 -15z"/>
<path d="M9766 3094 c-9 -9 -14 -19 -11 -22 3 -3 13 2 22 11 9 9 14 19 11 22
-3 3 -13 -2 -22 -11z"/>
<path d="M9915 3094 c-9 -9 -14 -19 -11 -21 9 -9 46 9 46 23 0 19 -15 18 -35
-2z"/>
<path d="M15091 3085 c0 -5 6 -21 14 -35 8 -14 14 -20 14 -15 0 6 -6 21 -14
35 -8 14 -14 21 -14 15z"/>
<path d="M13590 3076 c0 -2 8 -10 18 -17 15 -13 16 -12 3 4 -13 16 -21 21 -21
13z"/>
<path d="M15984 3056 c22 -18 52 -21 60 -7 3 5 -4 9 -17 8 -12 0 -31 3 -42 7
-20 8 -20 7 -1 -8z"/>
<path d="M9641 3051 c-7 -5 -12 -14 -10 -20 3 -6 9 -7 18 -2 7 5 12 14 10 20
-3 6 -9 7 -18 2z"/>
<path d="M9723 3023 c-14 -5 -18 -33 -5 -33 10 0 32 22 32 32 0 9 -8 9 -27 1z"/>
<path d="M13697 2999 c7 -7 15 -10 18 -7 3 3 -2 9 -12 12 -14 6 -15 5 -6 -5z"/>
<path d="M15130 2991 c0 -6 4 -13 10 -16 6 -3 7 1 4 9 -7 18 -14 21 -14 7z"/>
<path d="M9593 2973 c-15 -6 -17 -33 -3 -33 5 0 14 9 20 20 11 20 6 23 -17 13z"/>
<path d="M13741 2977 c2 -1 12 -9 22 -16 15 -12 17 -12 11 3 -3 9 -13 16 -22
16 -8 0 -13 -1 -11 -3z"/>
<path d="M15188 2953 c7 -3 16 -2 19 1 4 3 -2 6 -13 5 -11 0 -14 -3 -6 -6z"/>
<path d="M12582 2903 c-73 -25 -132 -47 -129 -49 4 -4 267 82 275 91 10 10
-15 3 -146 -42z"/>
<path d="M13796 2936 c3 -8 14 -16 25 -19 25 -7 24 -3 -6 17 -19 13 -23 13
-19 2z"/>
<path d="M15156 2937 c3 -10 9 -15 12 -12 3 3 0 11 -7 18 -10 9 -11 8 -5 -6z"/>
<path d="M13700 2920 c-8 -5 -10 -10 -5 -10 6 0 17 5 25 10 8 5 11 10 5 10 -5
0 -17 -5 -25 -10z"/>
<path d="M17580 2910 c12 -23 41 -40 67 -40 14 0 13 3 -7 17 -14 9 -27 20 -30
23 -3 4 -13 9 -23 13 -15 6 -16 4 -7 -13z"/>
<path d="M12933 2907 c-52 -20 -50 -28 3 -10 27 9 51 17 53 19 9 8 -25 2 -56
-9z"/>
<path d="M13870 2890 c14 -11 29 -20 34 -20 4 0 5 -7 2 -16 -3 -8 -2 -12 4 -9
11 7 64 -20 128 -63 28 -19 39 -32 30 -35 -7 -3 -3 -6 10 -6 12 -1 34 -8 47
-17 18 -12 29 -13 42 -5 16 9 15 10 -7 11 -14 0 -52 17 -85 37 -56 35 -58 38
-35 45 l25 7 -25 -2 c-28 -2 -106 33 -136 61 -10 10 -28 21 -39 25 -16 6 -15
3 5 -13z"/>
<path d="M13256 2891 c-4 -5 3 -7 14 -4 23 6 26 13 6 13 -8 0 -17 -4 -20 -9z"/>
<path d="M14170 2890 c-9 -6 -10 -10 -3 -10 6 0 15 5 18 10 8 12 4 12 -15 0z"/>
<path d="M15180 2881 c0 -5 5 -13 10 -16 6 -3 10 -2 10 4 0 5 -4 13 -10 16 -5
3 -10 2 -10 -4z"/>
<path d="M16518 2883 c7 -3 16 -2 19 1 4 3 -2 6 -13 5 -11 0 -14 -3 -6 -6z"/>
<path d="M17091 2886 c2 -3 27 -7 54 -10 34 -4 45 -3 35 4 -14 9 -98 15 -89 6z"/>
<path d="M17362 2884 c8 -7 88 -8 95 0 4 3 -18 6 -47 6 -29 0 -51 -3 -48 -6z"/>
<path d="M14279 2863 c-13 -17 -13 -17 6 -3 11 8 22 16 24 17 2 2 0 3 -6 3 -6
0 -17 -8 -24 -17z"/>
<path d="M12712 2833 c-57 -19 -102 -37 -99 -39 4 -4 207 62 215 71 10 10 -13
3 -116 -32z"/>
<path d="M15206 2837 c3 -10 9 -15 12 -12 3 3 0 11 -7 18 -10 9 -11 8 -5 -6z"/>
<path d="M17772 2843 c-22 -8 -1 -23 31 -22 22 1 25 3 12 6 -11 3 -22 9 -25
13 -3 4 -11 5 -18 3z"/>
<path d="M15638 2833 c6 -2 18 -2 25 0 6 3 1 5 -13 5 -14 0 -19 -2 -12 -5z"/>
<path d="M15698 2833 c6 -2 18 -2 25 0 6 3 1 5 -13 5 -14 0 -19 -2 -12 -5z"/>
<path d="M16525 2820 c22 -11 56 -22 75 -25 19 -3 43 -10 53 -16 9 -5 39 -11
65 -14 l47 -4 -55 20 c-30 11 -63 22 -72 25 -10 4 -18 11 -18 18 0 7 -25 12
-68 13 l-67 2 40 -19z"/>
<path d="M17303 2833 c32 -2 81 -2 110 0 29 2 3 3 -58 3 -60 0 -84 -1 -52 -3z"/>
<path d="M12994 2815 c-17 -13 -16 -14 14 -4 33 11 41 19 19 19 -7 0 -22 -7
-33 -15z"/>
<path d="M13173 2813 c9 -2 23 -2 30 0 6 3 -1 5 -18 5 -16 0 -22 -2 -12 -5z"/>
<path d="M13228 2803 c7 -3 16 -2 19 1 4 3 -2 6 -13 5 -11 0 -14 -3 -6 -6z"/>
<path d="M13280 2800 c-11 -8 -7 -9 15 -4 37 8 45 14 19 14 -10 0 -26 -5 -34
-10z"/>
<path d="M13368 2803 c7 -3 16 -2 19 1 4 3 -2 6 -13 5 -11 0 -14 -3 -6 -6z"/>
<path d="M13428 2803 c12 -2 30 -2 40 0 9 3 -1 5 -23 4 -22 0 -30 -2 -17 -4z"/>
<path d="M14306 2795 c-25 -19 -16 -19 20 0 16 8 22 15 14 15 -8 -1 -24 -7
-34 -15z"/>
<path d="M14413 2803 c9 -2 25 -2 35 0 9 3 1 5 -18 5 -19 0 -27 -2 -17 -5z"/>
<path d="M15220 2805 c0 -5 5 -17 10 -25 5 -8 10 -10 10 -5 0 6 -5 17 -10 25
-5 8 -10 11 -10 5z"/>
<path d="M15290 2800 c-35 -7 -35 -7 -5 -9 17 0 37 4 45 9 17 11 11 11 -40 0z"/>
<path d="M12418 2732 c-93 -31 -168 -59 -168 -62 0 -6 340 106 348 115 10 10
-17 2 -180 -53z"/>
<path d="M12855 2772 c-27 -10 -161 -56 -297 -102 -137 -47 -248 -87 -248 -90
0 -6 600 197 609 206 8 8 -15 3 -64 -14z"/>
<path d="M11902 2763 c-24 -8 -41 -17 -39 -19 4 -5 97 26 97 32 0 6 -11 4 -58
-13z"/>
<path d="M12200 2770 c-8 -5 -10 -10 -5 -10 6 0 17 5 25 10 8 5 11 10 5 10 -5
0 -17 -5 -25 -10z"/>
<path d="M14725 2765 c-23 -11 -25 -14 -10 -14 11 0 31 6 45 14 32 18 5 18
-35 0z"/>
<path d="M14815 2770 c3 -5 11 -10 16 -10 6 0 7 5 4 10 -3 6 -11 10 -16 10 -6
0 -7 -4 -4 -10z"/>
<path d="M15703 2773 c15 -2 37 -2 50 0 12 2 0 4 -28 4 -27 0 -38 -2 -22 -4z"/>
<path d="M16810 2770 c-20 -6 -14 -8 24 -8 30 1 43 4 35 9 -16 10 -25 10 -59
-1z"/>
<path d="M13858 2763 c6 -2 18 -2 25 0 6 3 1 5 -13 5 -14 0 -19 -2 -12 -5z"/>
<path d="M14010 2750 c0 -5 7 -7 15 -4 8 4 15 8 15 10 0 2 -7 4 -15 4 -8 0
-15 -4 -15 -10z"/>
<path d="M14250 2735 c-14 -8 -20 -14 -14 -15 5 0 19 7 30 15 24 18 16 19 -16
0z"/>
<path d="M15365 2740 c-3 -5 1 -10 10 -10 9 0 13 5 10 10 -3 6 -8 10 -10 10
-2 0 -7 -4 -10 -10z"/>
<path d="M15279 2727 c5 -5 19 -7 32 -5 20 3 19 5 -9 9 -20 3 -29 2 -23 -4z"/>
<path d="M13316 2722 c-3 -5 18 -7 47 -5 75 6 81 11 15 12 -31 1 -59 -3 -62
-7z"/>
<path d="M13446 2722 c-2 -4 12 -6 32 -4 62 6 69 10 20 11 -26 0 -49 -3 -52
-7z"/>
<path d="M14345 2709 c-11 -16 -2 -17 25 -2 24 12 24 13 3 13 -12 0 -25 -5
-28 -11z"/>
<path d="M14408 2713 c7 -3 16 -2 19 1 4 3 -2 6 -13 5 -11 0 -14 -3 -6 -6z"/>
<path d="M14483 2713 c9 -2 23 -2 30 0 6 3 -1 5 -18 5 -16 0 -22 -2 -12 -5z"/>
<path d="M14548 2713 c7 -3 16 -2 19 1 4 3 -2 6 -13 5 -11 0 -14 -3 -6 -6z"/>
<path d="M15498 2713 c7 -3 16 -2 19 1 4 3 -2 6 -13 5 -11 0 -14 -3 -6 -6z"/>
<path d="M11942 2683 c-40 -14 -71 -27 -69 -29 4 -4 147 43 155 51 9 9 -12 4
-86 -22z"/>
<path d="M16878 2703 c18 -2 45 -2 60 0 15 2 0 4 -33 4 -33 0 -45 -2 -27 -4z"/>
<path d="M8935 2690 c-3 -5 -1 -10 4 -10 6 0 11 5 11 10 0 6 -2 10 -4 10 -3 0
-8 -4 -11 -10z"/>
<path d="M15878 2693 c6 -2 18 -2 25 0 6 3 1 5 -13 5 -14 0 -19 -2 -12 -5z"/>
<path d="M12693 2582 c-172 -59 -313 -111 -313 -116 0 -4 8 -5 18 -1 9 4 154
54 322 112 167 57 306 106 309 109 13 13 -54 -8 -336 -104z"/>
<path d="M14765 2674 c-27 -13 -27 -14 -5 -10 14 3 41 9 60 14 35 10 35 10 5
10 -16 0 -43 -6 -60 -14z"/>
<path d="M14875 2680 c-5 -8 150 -8 159 0 2 3 -31 6 -75 6 -44 1 -82 -2 -84
-6z"/>
<path d="M16977 2683 c-15 -2 -31 -12 -36 -22 -18 -34 44 -62 69 -31 3 3 18
14 34 24 22 14 26 20 15 27 -14 9 -32 9 -82 2z"/>
<path d="M15318 2658 c4 -3 32 -3 62 2 l55 8 -62 -1 c-34 -1 -59 -5 -55 -9z"/>
<path d="M16213 2663 c15 -2 37 -2 50 0 12 2 0 4 -28 4 -27 0 -38 -2 -22 -4z"/>
<path d="M14682 2646 c-29 -17 -38 -26 -25 -26 6 0 21 9 34 20 27 22 24 24 -9
6z"/>
<path d="M15618 2643 c7 -3 16 -2 19 1 4 3 -2 6 -13 5 -11 0 -14 -3 -6 -6z"/>
<path d="M17760 2638 c0 -4 30 -8 67 -8 36 0 64 2 61 5 -9 9 -128 12 -128 3z"/>
<path d="M11742 2613 c-40 -14 -71 -27 -69 -29 4 -4 147 43 155 51 9 9 -12 4
-86 -22z"/>
<path d="M13368 2623 c-11 -14 -11 -15 7 -6 11 5 40 8 65 6 58 -5 49 4 -12 11
-35 4 -49 2 -60 -11z"/>
<path d="M13750 2636 c0 -2 8 -10 18 -17 15 -13 16 -12 3 4 -13 16 -21 21 -21
13z"/>
<path d="M14488 2633 c12 -2 30 -2 40 0 9 3 -1 5 -23 4 -22 0 -30 -2 -17 -4z"/>
<path d="M14563 2633 c9 -2 25 -2 35 0 9 3 1 5 -18 5 -19 0 -27 -2 -17 -5z"/>
<path d="M15738 2633 c12 -2 30 -2 40 0 9 3 -1 5 -23 4 -22 0 -30 -2 -17 -4z"/>
<path d="M16180 2630 c0 -5 5 -10 11 -10 5 0 7 5 4 10 -3 6 -8 10 -11 10 -2 0
-4 -4 -4 -10z"/>
<path d="M13490 2623 c0 -5 33 -8 73 -9 44 -1 64 2 52 7 -26 10 -125 11 -125
2z"/>
<path d="M17133 2623 c15 -2 39 -2 55 0 15 2 2 4 -28 4 -30 0 -43 -2 -27 -4z"/>
<path d="M13640 2610 c0 -5 5 -10 11 -10 5 0 7 5 4 10 -3 6 -8 10 -11 10 -2 0
-4 -4 -4 -10z"/>
<path d="M13699 2611 c12 -8 51 -4 51 5 0 2 -15 4 -32 4 -23 0 -29 -3 -19 -9z"/>
<path d="M16218 2613 c7 -3 16 -2 19 1 4 3 -2 6 -13 5 -11 0 -14 -3 -6 -6z"/>
<path d="M18065 2610 c11 -5 27 -9 35 -9 9 0 8 4 -5 9 -11 5 -27 9 -35 9 -9 0
-8 -4 5 -9z"/>
<path d="M11912 2558 c-78 -28 -141 -53 -139 -55 2 -2 73 21 158 51 85 30 147
55 139 55 -8 0 -79 -23 -158 -51z"/>
<path d="M13790 2606 c0 -2 8 -10 18 -17 15 -13 16 -12 3 4 -13 16 -21 21 -21
13z"/>
<path d="M14800 2590 l-25 -8 25 -1 c14 0 32 4 40 9 13 9 13 10 0 9 -8 -1 -26
-5 -40 -9z"/>
<path d="M15010 2590 c69 -4 129 -3 135 2 5 4 -52 7 -125 6 l-135 -1 125 -7z"/>
<path d="M12775 2479 c-201 -69 -321 -106 -323 -99 -2 6 -15 23 -29 38 -13 15
2 -12 33 -61 31 -48 59 -85 62 -83 2 3 -8 21 -24 41 -15 21 -23 39 -18 44 5 5
99 38 209 75 286 95 453 155 430 155 -11 -1 -164 -50 -340 -110z"/>
<path d="M16498 2583 c7 -3 16 -2 19 1 4 3 -2 6 -13 5 -11 0 -14 -3 -6 -6z"/>
<path d="M13675 2570 c-3 -5 1 -10 9 -10 9 0 16 5 16 10 0 6 -4 10 -9 10 -6 0
-13 -4 -16 -10z"/>
<path d="M13845 2560 c10 -11 20 -20 23 -20 3 0 -3 9 -13 20 -10 11 -20 20
-23 20 -3 0 3 -9 13 -20z"/>
<path d="M11580 2555 c-19 -7 -28 -14 -20 -14 8 0 29 6 45 14 39 17 21 18 -25
0z"/>
<path d="M15665 2559 l-60 -6 73 -1 c39 -1 72 0 72 2 0 9 -29 11 -85 5z"/>
<path d="M16083 2563 c9 -2 25 -2 35 0 9 3 1 5 -18 5 -19 0 -27 -2 -17 -5z"/>
<path d="M18308 2558 c5 -5 16 -8 23 -6 8 3 3 7 -10 11 -17 4 -21 3 -13 -5z"/>
<path d="M13306 2539 c25 -10 72 -11 77 -1 3 4 -18 7 -46 8 -32 0 -44 -2 -31
-7z"/>
<path d="M15883 2543 c26 -2 68 -2 95 0 26 2 4 3 -48 3 -52 0 -74 -1 -47 -3z"/>
<path d="M17343 2543 c26 -2 68 -2 95 0 26 2 4 3 -48 3 -52 0 -74 -1 -47 -3z"/>
<path d="M18358 2543 c7 -3 16 -2 19 1 4 3 -2 6 -13 5 -11 0 -14 -3 -6 -6z"/>
<path d="M13413 2533 c-7 -2 -13 -9 -13 -14 0 -6 6 -7 13 -2 6 4 30 10 52 14
l40 6 -40 1 c-22 0 -46 -2 -52 -5z"/>
<path d="M13889 2527 c14 -18 51 -42 51 -33 0 3 -15 15 -32 27 -24 17 -29 18
-19 6z"/>
<path d="M14690 2530 c-35 -7 -35 -7 -5 -9 17 0 37 4 45 9 17 11 11 11 -40 0z"/>
<path d="M11878 2436 c-142 -50 -258 -93 -258 -97 0 -5 508 169 519 178 20 15
-40 -3 -261 -81z"/>
<path d="M13533 2524 c4 -4 38 -6 76 -5 39 1 72 -3 76 -9 3 -5 21 -10 39 -10
47 0 97 11 91 20 -3 4 -22 4 -43 -1 -24 -5 -53 -5 -73 1 -37 11 -176 14 -166
4z"/>
<path d="M14610 2510 c-9 -6 -10 -10 -3 -10 6 0 15 5 18 10 8 12 4 12 -15 0z"/>
<path d="M18998 2513 c7 -3 16 -2 19 1 4 3 -2 6 -13 5 -11 0 -14 -3 -6 -6z"/>
<path d="M11402 2493 c-24 -8 -41 -17 -39 -19 4 -5 97 26 97 32 0 6 -11 4 -58
-13z"/>
<path d="M16638 2503 c6 -2 18 -2 25 0 6 3 1 5 -13 5 -14 0 -19 -2 -12 -5z"/>
<path d="M19080 2500 c8 -5 20 -10 25 -10 6 0 3 5 -5 10 -8 5 -19 10 -25 10
-5 0 -3 -5 5 -10z"/>
<path d="M14855 2492 c-22 -6 -26 -9 -14 -14 9 -3 22 -2 30 3 12 7 151 6 426
-4 34 -1 56 1 50 5 -18 9 -456 18 -492 10z"/>
<path d="M16094 2488 c-9 -13 -3 -15 31 -8 l30 6 -28 6 c-15 3 -30 1 -33 -4z"/>
<path d="M16740 2496 c0 -2 15 -6 34 -8 19 -2 32 0 30 4 -5 8 -64 12 -64 4z"/>
<path d="M11657 2468 c-32 -11 -56 -22 -54 -24 4 -5 127 36 127 42 0 6 -11 4
-73 -18z"/>
<path d="M13950 2486 c0 -2 8 -10 18 -17 15 -13 16 -12 3 4 -13 16 -21 21 -21
13z"/>
<path d="M14650 2486 c0 -2 8 -10 18 -17 15 -13 16 -12 3 4 -13 16 -21 21 -21
13z"/>
<path d="M15723 2467 c22 -5 42 -6 47 -1 5 5 -11 10 -38 10 l-47 1 38 -10z"/>
<path d="M16658 2473 c7 -3 16 -2 19 1 4 3 -2 6 -13 5 -11 0 -14 -3 -6 -6z"/>
<path d="M17550 2470 c8 -5 29 -9 45 -9 26 0 27 2 10 9 -11 5 -31 9 -45 9 -20
1 -22 -1 -10 -9z"/>
<path d="M14240 2459 c0 -9 111 -10 145 -1 22 7 6 9 -57 8 -49 0 -88 -3 -88
-7z"/>
<path d="M15792 2465 c7 -7 158 -8 165 -1 4 3 -33 6 -82 6 -49 0 -86 -2 -83
-5z"/>
<path d="M16693 2450 c-1 -17 1 -18 17 -8 14 9 16 14 7 20 -18 12 -23 10 -24
-12z"/>
<path d="M11247 2438 c-32 -11 -56 -22 -54 -24 4 -5 127 36 127 42 0 6 -11 4
-73 -18z"/>
<path d="M14776 2452 c-3 -3 -6 -11 -6 -18 0 -11 5 -11 25 -2 14 6 23 14 20
17 -8 7 -33 10 -39 3z"/>
<path d="M18516 2451 c-6 -8 40 -21 73 -21 11 1 8 5 -9 15 -29 16 -56 19 -64
6z"/>
<path d="M19098 2453 c6 -2 18 -2 25 0 6 3 1 5 -13 5 -14 0 -19 -2 -12 -5z"/>
<path d="M13400 2440 c0 -5 4 -10 9 -10 6 0 13 5 16 10 3 6 -1 10 -9 10 -9 0
-16 -4 -16 -10z"/>
<path d="M16748 2443 c6 -2 18 -2 25 0 6 3 1 5 -13 5 -14 0 -19 -2 -12 -5z"/>
<path d="M13450 2432 c0 -4 21 -6 48 -4 75 5 82 10 15 11 -35 0 -63 -2 -63 -7z"/>
<path d="M13586 2432 c-3 -5 11 -10 32 -10 20 -1 55 -4 77 -6 122 -14 205 -18
205 -9 0 6 -51 13 -112 17 -62 4 -132 9 -154 12 -23 3 -44 1 -48 -4z"/>
<path d="M13947 2419 c6 -22 5 -23 -13 -9 -18 14 -18 13 1 -10 11 -14 22 -27
24 -30 2 -3 1 3 -2 12 -3 9 -1 19 6 21 8 3 7 10 -5 22 -16 17 -17 17 -11 -6z"/>
<path d="M14720 2419 c0 -5 5 -7 10 -4 6 3 10 8 10 11 0 2 -4 4 -10 4 -5 0
-10 -5 -10 -11z"/>
<path d="M11457 2398 c-32 -11 -56 -22 -54 -24 4 -5 127 36 127 42 0 6 -11 4
-73 -18z"/>
<path d="M11925 2318 c-143 -50 -262 -93 -264 -95 -21 -16 41 3 269 83 290
102 292 102 270 103 -8 0 -132 -41 -275 -91z"/>
<path d="M11105 2385 c-25 -12 -26 -14 -5 -9 28 7 60 23 45 23 -5 0 -23 -6
-40 -14z"/>
<path d="M16973 2393 c15 -2 37 -2 50 0 12 2 0 4 -28 4 -27 0 -38 -2 -22 -4z"/>
<path d="M16118 2380 c-9 -6 -56 -14 -105 -19 -88 -8 -88 -8 -24 -10 36 0 92
6 125 14 34 8 72 16 86 18 14 2 5 5 -20 5 -25 1 -53 -3 -62 -8z"/>
<path d="M16810 2375 c0 -12 26 -32 49 -40 16 -5 21 -4 17 4 -8 13 -66 44 -66
36z"/>
<path d="M11232 2318 c-78 -28 -141 -52 -139 -55 4 -4 288 94 296 102 10 11
-21 1 -157 -47z"/>
<path d="M18750 2360 c24 -13 97 -24 85 -12 -5 5 -30 12 -55 15 -27 3 -39 2
-30 -3z"/>
<path d="M14010 2351 c0 -5 7 -15 17 -22 15 -13 15 -12 4 9 -12 23 -21 28 -21
13z"/>
<path d="M14073 2345 c-17 -18 -16 -22 2 -22 8 0 15 9 15 19 0 21 -1 22 -17 3z"/>
<path d="M10975 2340 c-13 -6 -15 -9 -5 -9 8 0 22 4 30 9 18 12 2 12 -25 0z"/>
<path d="M13910 2346 c0 -2 7 -7 16 -10 8 -3 12 -2 9 4 -6 10 -25 14 -25 6z"/>
<path d="M19055 2319 c-4 -6 -5 -12 -2 -15 2 -3 7 2 10 11 7 17 1 20 -8 4z"/>
<path d="M11253 2217 c-271 -98 -283 -103 -282 -127 1 -21 2 -21 6 -4 4 23 -3
20 338 140 132 47 242 87 244 90 14 13 -52 -8 -306 -99z"/>
<path d="M14918 2298 c12 -12 425 -21 482 -10 34 6 12 8 -90 8 -74 0 -195 2
-268 5 -81 4 -130 3 -124 -3z"/>
<path d="M12225 2291 c-11 -4 -134 -47 -272 -96 -139 -48 -253 -91 -253 -95 0
-6 502 165 555 190 25 11 -1 12 -30 1z"/>
<path d="M17300 2290 c-21 -13 -10 -16 35 -9 22 3 32 7 23 8 -9 0 -22 3 -30 6
-7 3 -20 1 -28 -5z"/>
<path d="M10500 2260 c-8 -5 -10 -10 -5 -10 6 0 17 5 25 10 8 5 11 10 5 10 -5
0 -17 -5 -25 -10z"/>
<path d="M19080 2251 c0 -10 109 -26 118 -17 9 10 0 13 -60 20 -32 3 -58 2
-58 -3z"/>
<path d="M11003 2237 c-51 -19 -51 -28 0 -11 26 9 47 18 47 20 0 6 -12 4 -47
-9z"/>
<path d="M10592 2203 c-24 -8 -41 -17 -39 -19 4 -5 97 26 97 32 0 6 -11 4 -58
-13z"/>
<path d="M11283 2092 c-263 -93 -303 -110 -302 -127 1 -14 3 -15 5 -5 3 11
106 51 302 120 263 91 340 122 307 119 -6 0 -146 -48 -312 -107z"/>
<path d="M12040 2095 c-237 -82 -296 -106 -298 -121 -3 -17 -2 -17 10 -3 7 9
141 60 298 114 157 54 287 99 289 101 19 17 -43 -2 -299 -91z"/>
<path d="M15050 2196 c0 -2 7 -7 16 -10 8 -3 12 -2 9 4 -6 10 -25 14 -25 6z"/>
<path d="M10482 2163 c-24 -8 -41 -17 -39 -19 4 -5 97 26 97 32 0 6 -11 4 -58
-13z"/>
<path d="M9501 2151 c-34 -14 -45 -24 -47 -42 -1 -13 -5 -34 -9 -46 -7 -21 -6
-22 25 -10 23 9 39 25 54 57 11 25 26 48 31 52 17 13 -7 8 -54 -11z"/>
<path d="M13695 2160 c3 -5 8 -10 11 -10 2 0 4 5 4 10 0 6 -5 10 -11 10 -5 0
-7 -4 -4 -10z"/>
<path d="M10385 2125 c-25 -12 -26 -14 -5 -9 28 7 60 23 45 23 -5 0 -23 -6
-40 -14z"/>
<path d="M10577 2083 c-54 -20 -96 -37 -94 -39 5 -5 179 56 192 68 13 11 11
11 -98 -29z"/>
<path d="M10245 2075 c-25 -12 -26 -14 -5 -9 14 4 29 10 35 15 12 12 5 11 -30
-6z"/>
<path d="M11345 1984 c-342 -120 -357 -125 -351 -131 2 -3 141 43 308 101 322
113 352 125 328 125 -8 0 -136 -43 -285 -95z"/>
<path d="M10165 2045 c-25 -12 -26 -14 -5 -9 28 7 60 23 45 23 -5 0 -23 -6
-40 -14z"/>
<path d="M9191 2030 c-28 -10 -40 -20 -32 -24 9 -6 9 -13 -2 -29 -7 -12 -16
-30 -20 -39 -5 -14 -2 -15 24 -6 21 7 37 25 55 60 14 28 24 51 22 53 -2 2 -23
-5 -47 -15z"/>
<path d="M10971 2034 c0 -11 3 -14 6 -6 3 7 2 16 -1 19 -3 4 -6 -2 -5 -13z"/>
<path d="M15268 2043 c7 -3 16 -2 19 1 4 3 -2 6 -13 5 -11 0 -14 -3 -6 -6z"/>
<path d="M10397 2018 c-32 -11 -56 -22 -54 -24 4 -5 127 36 127 42 0 6 -11 4
-73 -18z"/>
<path d="M10055 2005 c-25 -12 -26 -14 -5 -9 28 7 60 23 45 23 -5 0 -23 -6
-40 -14z"/>
<path d="M9795 2000 c-3 -6 1 -7 9 -4 18 7 21 14 7 14 -6 0 -13 -4 -16 -10z"/>
<path d="M10485 1942 c-99 -36 -182 -67 -184 -69 -20 -16 31 0 189 58 208 77
211 78 190 77 -8 0 -96 -30 -195 -66z"/>
<path d="M15340 1996 c0 -2 7 -6 15 -10 8 -3 15 -1 15 4 0 6 -7 10 -15 10 -8
0 -15 -2 -15 -4z"/>
<path d="M10925 1970 c3 -5 10 -10 16 -10 5 0 9 5 9 10 0 6 -7 10 -16 10 -8 0
-12 -4 -9 -10z"/>
<path d="M8989 1952 c-20 -10 -34 -22 -32 -29 7 -21 -36 -81 -65 -92 -15 -5
-21 -10 -14 -10 7 -1 35 10 62 24 39 20 55 36 75 75 28 55 27 56 -26 32z"/>
<path d="M10192 1943 c-24 -8 -41 -17 -39 -19 4 -5 97 26 97 32 0 6 -11 4 -58
-13z"/>
<path d="M9815 1918 c-27 -10 -54 -24 -60 -29 -5 -5 19 2 54 16 61 24 85 36
65 34 -5 -1 -31 -10 -59 -21z"/>
<path d="M10980 1905 c0 -19 5 -35 10 -35 6 0 8 11 4 27 -6 22 -4 25 10 20 23
-9 20 0 -4 13 -18 10 -20 8 -20 -25z"/>
<path d="M10082 1903 c-24 -8 -41 -17 -39 -19 4 -5 97 26 97 32 0 6 -11 4 -58
-13z"/>
<path d="M8800 1880 c-9 -6 -10 -10 -3 -10 6 0 15 5 18 10 8 12 4 12 -15 0z"/>
<path d="M9985 1865 c-25 -12 -26 -14 -5 -9 28 7 60 23 45 23 -5 0 -23 -6 -40
-14z"/>
<path d="M10485 1806 c-217 -79 -209 -76 -204 -81 5 -4 389 132 398 141 13 13
-42 -4 -194 -60z"/>
<path d="M11740 1855 c0 -5 5 -17 10 -25 5 -8 10 -10 10 -5 0 6 -5 17 -10 25
-5 8 -10 11 -10 5z"/>
<path d="M9960 1749 c-146 -54 -271 -99 -277 -99 -7 0 -13 -4 -13 -9 0 -5 11
-8 24 -7 13 0 22 3 20 5 -5 5 98 45 336 131 155 56 215 82 185 79 -6 0 -129
-45 -275 -100z"/>
<path d="M9317 1826 c-16 -12 -15 -14 12 -19 16 -3 40 -9 54 -12 26 -7 31 5
14 33 -11 16 -57 15 -80 -2z"/>
<path d="M9860 1820 c-8 -5 -10 -10 -5 -10 6 0 17 5 25 10 8 5 11 10 5 10 -5
0 -17 -5 -25 -10z"/>
<path d="M10953 1775 c0 -33 2 -45 4 -27 2 18 2 45 0 60 -2 15 -4 0 -4 -33z"/>
<path d="M9767 1788 c-32 -11 -56 -22 -53 -25 5 -6 126 36 126 43 0 6 -12 3
-73 -18z"/>
<path d="M11021 1784 c0 -11 3 -14 6 -6 3 7 2 16 -1 19 -3 4 -6 -2 -5 -13z"/>
<path d="M8855 1740 c-22 -11 -29 -17 -15 -14 29 8 80 33 65 33 -5 0 -28 -8
-50 -19z"/>
<path d="M10468 1672 c-115 -41 -208 -78 -208 -82 0 -6 408 136 419 146 17 16
-30 1 -211 -64z"/>
<path d="M9305 1725 c-25 -12 -26 -14 -5 -9 28 7 60 23 45 23 -5 0 -23 -6 -40
-14z"/>
<path d="M11032 1673 c-2 -42 1 -53 14 -53 8 0 12 4 9 10 -3 6 1 7 9 4 11 -4
16 0 16 10 0 9 -8 16 -19 16 -15 0 -21 8 -24 33 -3 22 -4 15 -5 -20z"/>
<path d="M8755 1700 c-3 -6 1 -7 9 -4 18 7 21 14 7 14 -6 0 -13 -4 -16 -10z"/>
<path d="M9225 1695 c-25 -12 -26 -14 -5 -9 28 7 60 23 45 23 -5 0 -23 -6 -40
-14z"/>
<path d="M9960 1614 c-140 -52 -272 -100 -293 -106 -52 -16 -64 -40 -34 -70
13 -13 34 -24 48 -25 21 -2 21 -1 -7 12 -35 16 -59 41 -47 48 17 11 175 71
373 143 113 41 209 79 214 84 14 14 24 17 -254 -86z"/>
<path d="M10272 1680 c0 -14 2 -19 5 -12 2 6 2 18 0 25 -3 6 -5 1 -5 -13z"/>
<path d="M9160 1670 c0 -5 7 -7 15 -4 8 4 15 8 15 10 0 2 -7 4 -15 4 -8 0 -15
-4 -15 -10z"/>
<path d="M8208 1643 c-21 -8 -35 -19 -32 -24 3 -6 -6 -25 -20 -44 -31 -40 -32
-47 -7 -37 19 7 107 110 100 116 -2 2 -21 -3 -41 -11z"/>
<path d="M10261 1624 c0 -11 3 -14 6 -6 3 7 2 16 -1 19 -3 4 -6 -2 -5 -13z"/>
<path d="M9015 1615 c-25 -12 -26 -14 -5 -9 28 7 60 23 45 23 -5 0 -23 -6 -40
-14z"/>
<path d="M8755 1605 c-25 -12 -26 -14 -5 -9 28 7 60 23 45 23 -5 0 -23 -6 -40
-14z"/>
<path d="M9203 1576 c-62 -23 -116 -46 -120 -51 -5 -4 1 -5 12 -1 125 47 230
87 234 91 10 11 -18 2 -126 -39z"/>
<path d="M8296 1601 c-4 -5 3 -7 14 -4 23 6 26 13 6 13 -8 0 -17 -4 -20 -9z"/>
<path d="M8935 1585 c-25 -12 -26 -14 -5 -9 28 7 60 23 45 23 -5 0 -23 -6 -40
-14z"/>
<path d="M8012 1565 c-18 -8 -31 -19 -28 -23 8 -13 -64 -102 -82 -102 -8 0
-12 -3 -9 -7 12 -11 82 27 99 55 9 15 29 42 44 60 29 35 25 38 -24 17z"/>
<path d="M9873 1456 c-167 -61 -303 -114 -303 -117 0 -4 7 -10 16 -13 8 -3 13
-2 10 3 -3 4 20 17 52 29 148 52 528 195 542 203 42 24 -39 -2 -317 -105z"/>
<path d="M10252 1545 c0 -16 2 -22 5 -12 2 9 2 23 0 30 -3 6 -5 -1 -5 -18z"/>
<path d="M8820 1540 c-8 -5 -10 -10 -5 -10 6 0 17 5 25 10 8 5 11 10 5 10 -5
0 -17 -5 -25 -10z"/>
<path d="M10935 1540 c3 -5 8 -10 11 -10 2 0 4 5 4 10 0 6 -5 10 -11 10 -5 0
-7 -4 -4 -10z"/>
<path d="M8565 1530 c-3 -6 1 -7 9 -4 18 7 21 14 7 14 -6 0 -13 -4 -16 -10z"/>
<path d="M9884 1518 c15 -25 41 -31 67 -18 28 15 14 27 -37 32 -37 3 -40 2
-30 -14z"/>
<path d="M8685 1488 c-44 -17 -84 -35 -90 -40 -5 -5 15 0 45 12 30 12 69 27
85 32 26 9 58 29 45 28 -3 -1 -41 -15 -85 -32z"/>
<path d="M8932 1472 c-34 -14 -60 -27 -58 -29 2 -2 37 10 77 26 41 17 67 30
59 30 -8 -1 -43 -12 -78 -27z"/>
<path d="M10241 1484 c0 -11 3 -14 6 -6 3 7 2 16 -1 19 -3 4 -6 -2 -5 -13z"/>
<path d="M9150 1449 c-58 -22 -111 -42 -119 -45 -8 -2 -12 -7 -9 -9 4 -4 248
82 257 91 13 12 -36 -2 -129 -37z"/>
<path d="M10937 1459 c7 -7 15 -10 18 -7 3 3 -2 9 -12 12 -14 6 -15 5 -6 -5z"/>
<path d="M8815 1425 c-25 -12 -26 -14 -5 -9 28 7 60 23 45 23 -5 0 -23 -6 -40
-14z"/>
<path d="M9597 1420 c-7 -28 -6 -32 9 -22 6 4 8 16 4 26 -6 18 -7 18 -13 -4z"/>
<path d="M9852 1319 c-167 -61 -306 -109 -309 -106 -2 3 1 15 7 27 6 11 10 28
8 37 -2 9 -61 -159 -132 -373 -148 -450 -146 -443 -158 -450 -12 -8 -2 46 17
91 7 16 27 77 45 135 18 58 48 152 67 209 18 57 32 105 30 108 -4 4 -25 -52
-104 -285 l-48 -143 -35 6 -35 6 32 -17 c29 -14 31 -18 21 -45 -5 -16 -14 -29
-18 -29 -5 0 -10 -8 -12 -18 -3 -15 -9 -17 -44 -10 l-42 9 20 55 c11 30 17 58
14 61 -3 3 -8 -3 -11 -13 -19 -60 -36 -84 -57 -84 -15 0 -19 -3 -11 -8 13 -8
6 -23 -47 -94 -13 -18 -17 -27 -7 -19 21 17 22 3 1 -27 -9 -13 -14 -26 -11
-28 8 -8 -21 -74 -48 -109 -12 -16 -26 -41 -30 -55 -9 -30 -24 -50 -37 -50 -7
0 -7 4 -1 12 17 22 53 136 51 162 -2 20 -5 23 -20 15 -14 -7 -18 -6 -18 6 0 8
-6 15 -12 15 -7 0 -24 3 -37 7 -18 4 -22 2 -19 -8 5 -15 -14 -39 -31 -39 -5 0
-26 -27 -46 -61 -19 -33 -42 -67 -50 -75 -7 -8 -17 -24 -21 -37 -3 -12 -12
-29 -19 -37 -7 -8 -16 -25 -19 -37 l-7 -23 155 0 c104 0 163 4 175 12 15 9 25
9 46 0 14 -7 46 -12 70 -12 36 0 42 3 38 18 -2 10 1 30 7 46 9 24 13 26 25 16
14 -12 14 -24 -2 -68 -4 -9 36 -12 179 -12 l185 0 17 58 c18 58 18 59 -3 101
-20 37 -21 46 -9 77 7 20 20 40 29 44 9 5 110 43 224 85 115 41 211 78 214 80
21 22 -40 4 -246 -69 -132 -46 -251 -88 -266 -91 -26 -7 -27 -6 -18 18 8 20 6
29 -10 46 -14 14 -18 28 -14 42 4 12 2 24 -3 28 -6 4 34 24 89 45 54 22 97 41
95 43 -2 3 -50 -11 -105 -31 -86 -29 -100 -32 -91 -17 5 10 7 21 5 23 -5 4
235 95 505 192 52 18 96 39 98 46 3 9 -1 11 -14 6 -24 -10 -310 -114 -471
-171 -115 -41 -121 -42 -113 -22 5 12 19 54 30 93 l22 72 252 92 c281 104 341
128 334 135 -2 2 -134 -43 -293 -100 -159 -58 -290 -104 -291 -102 -2 1 5 35
15 75 11 40 16 72 13 72 -14 1 44 29 59 30 8 0 30 -21 48 -46 43 -58 53 -50
12 10 -29 41 -30 46 -14 54 10 5 120 47 246 92 125 46 227 87 227 91 0 5 -24
0 -52 -11 -216 -80 -523 -189 -526 -186 -2 2 10 10 27 17 22 10 27 17 20 26
-15 17 9 120 30 128 9 4 126 47 261 97 134 49 251 93 260 98 40 24 -26 3 -236
-74 -262 -95 -335 -121 -349 -121 -5 0 -12 -3 -15 -6 -3 -4 -15 -9 -27 -13
-18 -6 -23 -3 -23 9 0 10 6 15 13 12 8 -3 12 8 12 38 0 48 11 67 25 45 6 -9
10 -10 10 -3 0 6 -5 15 -11 19 -7 4 21 19 62 34 41 15 186 69 324 120 137 50
252 94 254 96 15 14 -58 -10 -327 -107z m-338 -316 c-9 -21 -21 -57 -26 -81
-8 -37 -41 -73 -54 -59 -8 7 8 67 18 67 6 0 8 -11 6 -25 -6 -29 7 -25 15 5 3
11 1 23 -4 26 -5 3 -9 16 -9 30 0 22 3 24 23 19 18 -6 20 -5 10 6 -24 25 -14
41 30 48 4 0 0 -16 -9 -36z m-71 -224 c-13 -40 -23 -78 -23 -85 0 -8 -3 -14
-7 -14 -16 0 -8 75 10 93 9 9 18 24 18 32 1 8 3 20 4 25 1 6 3 12 4 15 0 3 5
5 9 5 5 0 -2 -32 -15 -71z m-18 24 c-8 -31 -13 -39 -20 -31 -9 9 6 58 17 58 6
0 7 -11 3 -27z m-30 -100 c-8 -31 -13 -39 -20 -31 -9 9 6 58 17 58 6 0 7 -11
3 -27z m3 -75 c-15 -45 -21 -49 -17 -13 3 24 14 44 26 45 1 0 -3 -15 -9 -32z
m-38 -42 c-14 -38 -32 -24 -18 15 6 18 14 27 20 21 5 -5 5 -20 -2 -36z m-30
-88 c0 -17 -18 -44 -24 -37 -8 7 5 49 15 49 5 0 9 -6 9 -12z m-127 -55 c9 -5
-11 -33 -21 -31 -4 1 -20 -4 -35 -10 -16 -7 -32 -12 -37 -12 -11 0 10 52 25
62 9 7 50 1 68 -9z m47 -33 c-6 -11 -13 -20 -15 -20 -3 0 -5 9 -5 20 0 11 7
20 15 20 13 0 14 -4 5 -20z m60 16 c0 -2 -7 -6 -15 -10 -8 -3 -15 -1 -15 4 0
6 7 10 15 10 8 0 15 -2 15 -4z m-10 -64 c0 -13 -3 -12 -20 3 -11 10 -17 22
-14 27 8 12 34 -11 34 -30z m-114 5 c8 -21 -14 -67 -31 -67 -9 0 -13 -4 -10
-10 8 -13 -16 -13 -49 0 -20 7 -24 14 -18 30 16 42 96 77 108 47z m48 -14 c-4
-16 -13 -39 -20 -53 -19 -36 -18 0 0 45 18 42 29 46 20 8z m33 -35 c7 -9 7
-24 -1 -47 -10 -29 -13 -31 -25 -17 -8 9 -10 26 -6 46 7 32 17 37 32 18z
m-121 -92 c-9 -42 -19 -50 -53 -39 -21 8 -27 16 -26 32 2 13 -1 20 -7 16 -5
-3 -8 1 -5 9 3 9 7 22 9 30 4 13 11 13 46 -1 39 -16 41 -19 36 -47z m-196 18
c0 -2 -7 -4 -15 -4 -8 0 -15 4 -15 10 0 5 7 7 15 4 8 -4 15 -8 15 -10z m239
-25 c-13 -38 -29 -60 -29 -40 0 16 31 83 36 78 2 -2 -1 -19 -7 -38z m-140 -40
c-18 -11 -22 -5 -14 22 7 20 8 21 17 4 8 -12 7 -20 -3 -26z m184 16 c1 -5 -6
-11 -15 -13 -11 -2 -18 3 -18 13 0 17 30 18 33 0z m-11 -61 c-7 -12 -11 -13
-17 -4 -4 7 -2 16 6 21 18 11 23 4 11 -17z m-123 2 c8 -9 8 -21 0 -45 -11 -32
-26 -37 -64 -21 -18 7 -16 10 18 24 42 19 52 41 11 25 -31 -11 -37 -8 -28 15
7 19 47 21 63 2z m41 -61 c-15 -39 -23 -25 -8 16 6 18 13 29 15 23 2 -6 -1
-24 -7 -39z"/>
<path d="M9110 310 c-9 -6 -10 -10 -3 -10 6 0 15 5 18 10 8 12 4 12 -15 0z"/>
<path d="M8490 1410 c-9 -6 -10 -10 -3 -10 6 0 15 5 18 10 8 12 4 12 -15 0z"/>
<path d="M8750 1400 c-8 -5 -10 -10 -5 -10 6 0 17 5 25 10 8 5 11 10 5 10 -5
0 -17 -5 -25 -10z"/>
<path d="M8180 1380 c-8 -5 -10 -10 -5 -10 6 0 17 5 25 10 8 5 11 10 5 10 -5
0 -17 -5 -25 -10z"/>
<path d="M8590 1340 c-52 -21 -90 -39 -85 -39 13 -1 195 69 195 75 0 7 -13 3
-110 -36z"/>
<path d="M7700 1360 c-9 -6 -10 -10 -3 -10 6 0 15 5 18 10 8 12 4 12 -15 0z"/>
<path d="M8695 1275 c-132 -52 -247 -94 -255 -95 -8 0 -20 -8 -27 -19 -11 -18
-11 -18 25 -1 20 10 138 57 262 105 279 108 268 104 250 104 -8 -1 -123 -43
-255 -94z"/>
<path d="M7845 1340 c-22 -11 -29 -17 -15 -14 29 8 80 33 65 33 -5 0 -28 -8
-50 -19z"/>
<path d="M9091 1294 c-63 -25 -120 -43 -126 -40 -7 2 -24 -20 -38 -50 -34 -68
-35 -86 -2 -23 24 47 25 47 155 95 71 26 130 51 130 56 0 4 -1 8 -2 7 -2 0
-55 -21 -117 -45z"/>
<path d="M8030 1320 c-9 -6 -10 -10 -3 -10 6 0 15 5 18 10 8 12 4 12 -15 0z"/>
<path d="M11850 1290 c-18 -12 -2 -12 25 0 13 6 15 9 5 9 -8 0 -22 -4 -30 -9z"/>
<path d="M7242 1248 c-13 -6 -21 -17 -18 -24 2 -6 -7 -22 -21 -35 -13 -13 -29
-33 -35 -44 -12 -24 89 72 103 98 11 19 4 21 -29 5z"/>
<path d="M8080 1250 c-8 -5 -10 -10 -5 -10 6 0 17 5 25 10 8 5 11 10 5 10 -5
0 -17 -5 -25 -10z"/>
<path d="M10897 1243 c-4 -3 -7 -11 -7 -17 0 -6 5 -5 12 2 6 6 9 14 7 17 -3 3
-9 2 -12 -2z"/>
<path d="M8019 1219 l-24 -20 30 17 c39 24 40 24 28 24 -6 0 -21 -9 -34 -21z"/>
<path d="M10917 1223 c-12 -12 -7 -22 8 -17 8 4 15 10 15 15 0 11 -14 12 -23
2z"/>
<path d="M11605 1205 c-25 -12 -26 -14 -5 -9 28 7 60 23 45 23 -5 0 -23 -6
-40 -14z"/>
<path d="M8586 1101 l-279 -107 -285 -455 c-156 -250 -287 -462 -289 -472 -3
-9 -9 -17 -13 -17 -4 0 -12 -11 -18 -25 -13 -29 -5 -33 14 -8 13 17 15 17 28
0 11 -15 26 -17 77 -15 l63 3 32 56 33 56 213 81 c117 45 228 87 246 93 17 6
32 15 32 21 0 6 -8 7 -17 3 -74 -28 -467 -175 -471 -175 -3 0 2 8 10 18 8 9
34 52 58 94 33 58 51 80 73 88 17 5 31 9 32 8 1 -2 16 -23 34 -47 37 -53 42
-42 5 12 -14 21 -24 40 -22 43 3 2 87 36 189 75 101 39 191 75 199 80 41 23
-27 2 -235 -76 -125 -47 -230 -84 -232 -81 -3 3 6 8 21 12 14 3 23 10 20 16
-6 10 54 138 71 150 6 4 112 47 238 95 125 48 227 90 227 94 0 9 0 9 -289
-100 -117 -45 -216 -81 -220 -81 -3 1 11 10 32 21 36 19 38 21 20 34 -17 13
-17 14 2 30 11 9 14 13 6 9 -10 -5 -11 -1 -6 17 4 13 5 21 1 18 -11 -10 -86
-130 -86 -137 0 -4 -20 -15 -45 -24 -50 -19 -52 -18 -29 18 14 20 19 22 33 12
14 -11 14 -11 4 3 -11 13 -9 23 10 57 23 44 71 74 118 76 15 1 25 3 23 5 -6 6
49 29 286 121 184 70 252 100 229 100 -3 0 -125 -45 -270 -101 -374 -143 -342
-133 -328 -106 22 43 30 48 48 35 14 -12 14 -11 2 4 -11 15 -10 22 6 50 11 18
26 33 34 33 8 0 16 3 19 6 5 6 236 99 448 179 62 24 110 45 107 48 -2 2 -89
-28 -193 -67 -187 -71 -189 -71 -225 -56 -42 17 -47 18 -47 6 0 -5 16 -13 37
-18 l36 -8 -85 -33 c-47 -17 -88 -32 -92 -32 -3 0 4 16 16 35 13 19 29 33 36
30 7 -3 10 0 7 5 -10 16 5 52 20 47 7 -3 12 1 11 10 -1 15 18 23 369 159 165
64 211 84 190 83 -5 0 -136 -49 -289 -108z m-533 -638 c-9 -16 -18 -29 -19
-31 -4 -6 -44 19 -44 27 0 7 48 27 73 30 4 1 0 -11 -10 -26z m-45 -36 c13 -15
-27 -94 -45 -90 -6 1 -14 -4 -17 -12 -3 -9 0 -12 12 -9 9 2 -3 -5 -27 -16 -24
-11 -46 -18 -49 -15 -3 2 3 7 12 11 9 3 14 10 11 14 -3 5 3 23 14 40 17 29 20
30 35 15 14 -14 16 -14 16 -1 0 8 -4 17 -9 20 -12 8 10 56 25 56 6 0 16 -6 22
-13z m-83 -174 c-36 -55 -45 -67 -45 -57 0 5 5 15 12 22 6 6 9 14 6 18 -4 3
-14 -8 -22 -24 -10 -20 -12 -32 -5 -34 6 -2 3 -12 -8 -25 -17 -20 -19 -20 -35
-2 -14 14 -15 21 -5 31 7 8 13 20 15 28 2 8 12 24 22 34 17 17 21 18 36 5 16
-12 17 -12 11 3 -4 11 0 18 11 21 9 3 19 5 21 6 2 0 -5 -11 -14 -26z m-97
-124 c8 -12 9 -18 3 -15 -5 4 -18 -5 -27 -19 -16 -24 -44 -34 -44 -16 0 16 35
71 45 71 6 0 16 -9 23 -21z m-30 -89 c-7 -11 -16 -20 -20 -20 -11 0 -5 23 7
32 19 14 25 8 13 -12z"/>
<path d="M7710 1190 c-8 -5 -10 -10 -5 -10 6 0 17 5 25 10 8 5 11 10 5 10 -5
0 -17 -5 -25 -10z"/>
<path d="M7915 1185 c-25 -12 -26 -14 -5 -9 14 4 29 10 35 15 12 12 5 11 -30
-6z"/>
<path d="M7062 1172 c-18 -10 -30 -21 -26 -25 4 -4 -5 -21 -21 -37 -16 -17
-24 -30 -19 -30 5 0 34 25 64 55 57 57 57 66 2 37z"/>
<path d="M9565 1140 c-9 -28 -15 -54 -12 -56 3 -3 19 2 36 11 33 17 33 35 1
35 -17 0 -18 4 -9 26 5 15 8 29 5 31 -2 2 -12 -19 -21 -47z"/>
<path d="M8996 1131 l-130 -49 -26 -54 c-33 -68 -41 -88 -34 -88 3 0 18 29 34
64 32 71 16 61 215 133 65 24 102 44 80 42 -6 0 -68 -22 -139 -48z"/>
<path d="M7630 1160 c-8 -5 -10 -10 -5 -10 6 0 17 5 25 10 8 5 11 10 5 10 -5
0 -17 -5 -25 -10z"/>
<path d="M8300 1120 c-8 -5 -10 -10 -5 -10 6 0 17 5 25 10 8 5 11 10 5 10 -5
0 -17 -5 -25 -10z"/>
<path d="M8380 1110 c-6 -11 -8 -20 -6 -20 3 0 10 9 16 20 6 11 8 20 6 20 -3
0 -10 -9 -16 -20z"/>
<path d="M8885 1119 c-4 -6 -5 -12 -2 -15 2 -3 7 2 10 11 7 17 1 20 -8 4z"/>
<path d="M7953 1092 c-24 -10 -51 -26 -60 -37 -17 -19 -17 -19 2 -4 11 9 41
24 68 34 26 10 47 19 47 21 0 7 -14 3 -57 -14z"/>
<path d="M7632 1073 c-35 -14 -61 -27 -59 -30 5 -4 137 47 137 53 0 7 -13 3
-78 -23z"/>
<path d="M9238 1093 c7 -3 16 -2 19 1 4 3 -2 6 -13 5 -11 0 -14 -3 -6 -6z"/>
<path d="M9288 1083 c7 -3 16 -2 19 1 4 3 -2 6 -13 5 -11 0 -14 -3 -6 -6z"/>
<path d="M9334 1065 c8 -8 18 -15 22 -15 3 0 1 7 -6 15 -7 8 -17 15 -22 15 -5
0 -3 -7 6 -15z"/>
<path d="M6960 1050 c-19 -11 -30 -19 -25 -19 6 0 26 8 45 19 19 11 31 19 25
19 -5 0 -26 -8 -45 -19z"/>
<path d="M9440 1052 c0 -7 -6 -12 -13 -12 -8 0 -14 -7 -14 -15 0 -22 25 -18
32 6 4 11 4 23 1 26 -3 4 -6 1 -6 -5z"/>
<path d="M8330 1030 c-6 -11 -8 -20 -6 -20 3 0 10 9 16 20 6 11 8 20 6 20 -3
0 -10 -9 -16 -20z"/>
<path d="M7530 1030 c-8 -5 -10 -10 -5 -10 6 0 17 5 25 10 8 5 11 10 5 10 -5
0 -17 -5 -25 -10z"/>
<path d="M7765 1015 c-27 -13 -45 -23 -40 -24 6 0 33 11 60 24 28 13 46 23 40
24 -5 0 -32 -11 -60 -24z"/>
<path d="M8929 978 l-136 -51 -73 -146 c-41 -80 -129 -261 -196 -401 -102
-212 -127 -256 -149 -263 -14 -5 -22 -13 -19 -18 3 -6 11 -5 20 2 20 16 18 5
-11 -51 -14 -28 -22 -50 -19 -50 12 0 50 47 47 57 -8 23 39 54 147 94 101 38
136 56 126 66 -1 2 -53 -16 -114 -39 -62 -23 -114 -39 -117 -36 -3 3 15 47 39
99 l44 94 121 44 c67 24 121 47 121 52 0 4 -44 -8 -97 -28 -54 -19 -106 -38
-115 -40 -14 -4 -9 13 24 85 l41 90 116 43 c150 55 205 78 199 84 -3 3 -70
-19 -149 -49 -79 -30 -145 -53 -147 -51 -1 1 17 42 40 91 l43 88 148 54 c81
30 147 58 147 62 0 4 -64 -16 -142 -46 -79 -30 -144 -54 -146 -54 -1 0 15 35
37 78 l39 77 137 50 c75 28 139 53 142 58 7 12 -7 8 -148 -45z"/>
<path d="M7475 1010 c-8 -13 5 -13 25 0 13 8 13 10 -2 10 -9 0 -20 -4 -23 -10z"/>
<path d="M7849 1003 c-13 -16 -12 -17 4 -4 9 7 17 15 17 17 0 8 -8 3 -21 -13z"/>
<path d="M7650 970 c-8 -5 -10 -10 -5 -10 6 0 17 5 25 10 8 5 11 10 5 10 -5 0
-17 -5 -25 -10z"/>
<path d="M7819 963 c-13 -16 -12 -17 4 -4 16 13 21 21 13 21 -2 0 -10 -8 -17
-17z"/>
<path d="M7847 946 c-32 -12 -65 -33 -74 -47 l-16 -24 24 21 c13 12 46 29 72
39 26 10 50 22 53 26 6 11 10 12 -59 -15z"/>
<path d="M6695 940 c-3 -6 1 -7 9 -4 18 7 21 14 7 14 -6 0 -13 -4 -16 -10z"/>
<path d="M6865 935 c-25 -12 -26 -14 -5 -9 14 4 29 10 35 15 12 12 5 11 -30
-6z"/>
<path d="M7580 940 c-8 -5 -10 -10 -5 -10 6 0 17 5 25 10 8 5 11 10 5 10 -5 0
-17 -5 -25 -10z"/>
<path d="M8180 939 c0 -5 5 -7 10 -4 6 3 10 8 10 11 0 2 -4 4 -10 4 -5 0 -10
-5 -10 -11z"/>
<path d="M7445 889 c-55 -22 -107 -48 -115 -57 -13 -14 -13 -15 0 -5 8 6 62
30 120 52 57 23 106 44 109 46 11 11 -21 1 -114 -36z"/>
<path d="M7471 795 c-129 -52 -237 -92 -241 -90 -4 2 -18 -8 -31 -23 -13 -14
-17 -21 -9 -15 8 6 56 27 105 45 114 44 419 169 424 174 13 12 -37 -6 -248
-91z"/>
<path d="M6705 870 c-3 -6 1 -7 9 -4 18 7 21 14 7 14 -6 0 -13 -4 -16 -10z"/>
<path d="M7739 853 c-13 -16 -12 -17 4 -4 9 7 17 15 17 17 0 8 -8 3 -21 -13z"/>
<path d="M6304 845 c-10 -8 -14 -15 -8 -15 6 0 17 7 24 15 16 19 9 19 -16 0z"/>
<path d="M7709 813 c-13 -16 -12 -17 4 -4 9 7 17 15 17 17 0 8 -8 3 -21 -13z"/>
<path d="M7290 795 c-7 -9 -11 -17 -9 -20 3 -2 10 5 17 15 14 24 10 26 -8 5z"/>
<path d="M7210 790 c-8 -5 -10 -10 -5 -10 6 0 17 5 25 10 8 5 11 10 5 10 -5 0
-17 -5 -25 -10z"/>
<path d="M10101 784 c0 -11 3 -14 6 -6 3 7 2 16 -1 19 -3 4 -6 -2 -5 -13z"/>
<path d="M6136 774 c-18 -10 -25 -19 -18 -26 6 -6 19 -1 37 16 31 29 24 33
-19 10z"/>
<path d="M7679 773 c-13 -16 -12 -17 4 -4 16 13 21 21 13 21 -2 0 -10 -8 -17
-17z"/>
<path d="M7735 770 c-22 -10 -47 -19 -57 -19 -9 -1 -33 -25 -54 -53 -20 -29
-48 -68 -62 -85 -13 -18 -22 -33 -19 -33 2 0 30 33 60 74 49 65 63 77 116 97
34 13 61 27 61 31 0 10 4 11 -45 -12z"/>
<path d="M9315 780 c3 -5 8 -10 11 -10 2 0 4 5 4 10 0 6 -5 10 -11 10 -5 0 -7
-4 -4 -10z"/>
<path d="M8236 753 c-6 -14 -5 -15 5 -6 7 7 10 15 7 18 -3 3 -9 -2 -12 -12z"/>
<path d="M6079 703 c-13 -16 -12 -17 4 -4 9 7 17 15 17 17 0 8 -8 3 -21 -13z"/>
<path d="M7330 610 c-135 -55 -249 -100 -253 -100 -5 0 -5 5 -2 10 3 6 4 10 1
10 -8 0 -168 -191 -164 -196 3 -2 19 14 37 37 28 35 35 38 49 27 15 -12 16
-11 4 4 -12 14 -9 21 17 48 22 23 84 53 238 116 114 47 233 94 263 106 52 19
86 39 65 37 -6 0 -120 -45 -255 -99z"/>
<path d="M6051 664 c-19 -8 -32 -17 -28 -20 3 -3 22 4 44 15 44 23 34 27 -16
5z"/>
<path d="M5854 628 l-19 -23 23 19 c12 11 22 21 22 23 0 8 -8 2 -26 -19z"/>
<path d="M6570 635 c-14 -8 -20 -14 -15 -14 6 0 21 6 35 14 14 8 21 14 15 14
-5 0 -21 -6 -35 -14z"/>
<path d="M7080 635 c-14 -8 -20 -14 -14 -15 5 0 19 7 30 15 24 18 16 19 -16 0z"/>
<path d="M7149 623 l-24 -28 28 24 c15 14 27 26 27 28 0 8 -8 1 -31 -24z"/>
<path d="M6510 610 c-8 -5 -10 -10 -5 -10 6 0 17 5 25 10 8 5 11 10 5 10 -5 0
-17 -5 -25 -10z"/>
<path d="M7581 587 c-53 -22 -59 -27 -256 -292 -220 -295 -220 -295 -208 -295
4 0 37 41 72 90 61 86 67 90 133 116 38 15 71 31 74 36 7 12 0 10 -57 -12 -28
-12 -53 -19 -55 -17 -2 2 23 39 55 83 45 60 69 83 98 93 69 25 105 42 100 47
-2 3 -28 -5 -57 -16 -29 -11 -54 -19 -56 -17 -2 2 20 36 49 75 44 60 60 74
107 93 53 21 85 40 65 38 -6 -1 -34 -11 -64 -22z"/>
<path d="M5885 590 c-3 -6 1 -7 9 -4 18 7 21 14 7 14 -6 0 -13 -4 -16 -10z"/>
<path d="M7099 563 l-24 -28 28 24 c25 23 32 31 24 31 -2 0 -14 -12 -28 -27z"/>
<path d="M6410 570 c-8 -5 -10 -10 -5 -10 6 0 17 5 25 10 8 5 11 10 5 10 -5 0
-17 -5 -25 -10z"/>
<path d="M5749 533 c-13 -15 -12 -15 9 -4 23 12 28 21 13 21 -5 0 -15 -7 -22
-17z"/>
<path d="M9730 540 c-8 -5 -10 -10 -5 -10 6 0 17 5 25 10 8 5 11 10 5 10 -5 0
-17 -5 -25 -10z"/>
<path d="M5900 524 l-25 -15 25 7 c14 3 29 10 35 15 15 14 -7 10 -35 -7z"/>
<path d="M7185 429 c-137 -55 -258 -101 -268 -102 -11 -1 -72 -65 -140 -146
-151 -179 -152 -181 -135 -181 7 0 22 16 32 34 10 19 29 45 42 57 21 19 26 20
41 8 16 -12 17 -12 6 2 -11 13 -4 18 49 37 63 23 91 24 41 3 -15 -7 -51 -40
-80 -74 l-52 -62 42 -3 c33 -2 79 12 217 69 96 39 181 73 188 76 6 3 12 9 12
13 0 5 -62 -16 -137 -47 -188 -75 -263 -103 -263 -97 0 2 11 9 25 14 15 6 23
15 19 23 -2 7 11 32 31 55 20 22 36 44 35 48 -3 11 12 18 227 104 108 44 202
85 208 91 13 13 -25 -1 -314 -115 -134 -54 -245 -95 -248 -93 -2 3 13 23 34
45 21 23 51 57 66 77 15 19 34 35 43 35 8 0 22 4 32 10 20 11 209 89 391 162
69 27 128 52 130 54 16 16 -56 -10 -274 -97z"/>
<path d="M7836 505 c10 -8 24 -14 29 -14 6 0 1 6 -9 14 -11 8 -24 15 -30 15
-5 0 -1 -7 10 -15z"/>
<path d="M6430 470 c-8 -5 -10 -10 -5 -10 6 0 17 5 25 10 8 5 11 10 5 10 -5 0
-17 -5 -25 -10z"/>
<path d="M7930 465 c-10 -12 -10 -15 3 -15 8 0 17 7 21 15 3 8 2 15 -3 15 -5
0 -14 -7 -21 -15z"/>
<path d="M5725 450 c-3 -6 1 -7 9 -4 18 7 21 14 7 14 -6 0 -13 -4 -16 -10z"/>
<path d="M6370 445 c-14 -8 -20 -14 -15 -14 6 0 21 6 35 14 14 8 21 14 15 14
-5 0 -21 -6 -35 -14z"/>
<path d="M7057 451 c6 -7 9 -20 6 -27 -4 -10 4 -14 27 -14 18 0 29 4 25 10 -3
6 -11 10 -17 10 -6 0 -21 8 -32 17 -12 10 -16 11 -9 4z"/>
<path d="M6895 430 c-3 -6 1 -7 9 -4 18 7 21 14 7 14 -6 0 -13 -4 -16 -10z"/>
<path d="M7920 420 c-6 -11 -8 -20 -6 -20 3 0 10 9 16 20 6 11 8 20 6 20 -3 0
-10 -9 -16 -20z"/>
<path d="M6285 411 c-22 -11 -35 -19 -30 -19 14 -1 93 36 80 37 -5 0 -28 -8
-50 -18z"/>
<path d="M7845 420 c-3 -5 -1 -10 4 -10 6 0 11 5 11 10 0 6 -2 10 -4 10 -3 0
-8 -4 -11 -10z"/>
<path d="M6432 373 c-45 -20 -81 -38 -79 -40 4 -3 167 64 176 73 11 10 -20 0
-97 -33z"/>
<path d="M5241 376 c-13 -7 -20 -16 -15 -19 5 -3 21 3 34 14 29 21 17 25 -19
5z"/>
<path d="M6199 373 c-13 -15 -12 -15 11 -3 34 17 36 20 18 20 -9 0 -22 -7 -29
-17z"/>
<path d="M5175 350 c-3 -6 1 -7 9 -4 18 7 21 14 7 14 -6 0 -13 -4 -16 -10z"/>
<path d="M5690 345 c-14 -8 -20 -14 -15 -14 6 0 21 6 35 14 14 8 21 14 15 14
-5 0 -21 -6 -35 -14z"/>
<path d="M6154 328 l-19 -23 23 19 c12 11 22 21 22 23 0 8 -8 2 -26 -19z"/>
<path d="M7852 314 c-12 -19 -20 -34 -18 -34 7 0 49 61 44 65 -2 2 -13 -12
-26 -31z"/>
<path d="M6070 320 c-8 -5 -10 -10 -5 -10 6 0 17 5 25 10 8 5 11 10 5 10 -5 0
-17 -5 -25 -10z"/>
<path d="M6217 283 c-59 -25 -106 -48 -103 -50 5 -5 226 86 226 93 0 8 -16 2
-123 -43z"/>
<path d="M6990 320 c-9 -6 -10 -10 -3 -10 6 0 15 5 18 10 8 12 4 12 -15 0z"/>
<path d="M5535 280 c-3 -6 1 -7 9 -4 18 7 21 14 7 14 -6 0 -13 -4 -16 -10z"/>
<path d="M6074 248 l-19 -23 23 19 c21 18 27 26 19 26 -2 0 -12 -10 -23 -22z"/>
<path d="M7795 224 c-20 -33 -30 -43 -38 -35 -6 6 -15 11 -21 11 -5 0 -2 -6 8
-13 17 -13 16 -16 -14 -65 -26 -43 -36 -52 -54 -47 -18 5 -19 5 -4 -5 17 -10
17 -13 2 -36 -9 -13 -15 -27 -12 -29 3 -3 19 19 38 48 18 28 47 75 65 102 37
58 67 115 61 115 -2 0 -16 -21 -31 -46z"/>
<path d="M4965 240 c-3 -5 -1 -10 4 -10 6 0 11 5 11 10 0 6 -2 10 -4 10 -3 0
-8 -4 -11 -10z"/>
<path d="M6730 239 c0 -5 5 -7 10 -4 6 3 10 8 10 11 0 2 -4 4 -10 4 -5 0 -10
-5 -10 -11z"/>
<path d="M6906 225 c-18 -27 -17 -28 8 -19 9 3 13 11 9 17 -3 6 -1 7 5 3 7 -4
17 -4 23 0 8 4 7 9 -2 15 -21 13 -25 11 -43 -16z"/>
<path d="M6064 223 c-11 -2 -69 -54 -130 -115 -106 -107 -108 -110 -74 -105
37 5 458 181 475 198 6 6 -12 1 -40 -11 -171 -73 -438 -181 -441 -177 -9 9
195 197 214 197 11 0 24 5 27 10 3 6 3 9 -2 9 -4 -1 -17 -4 -29 -6z"/>
<path d="M5560 204 l-25 -15 25 7 c14 3 29 10 35 15 15 14 -7 10 -35 -7z"/>
<path d="M4965 180 c-3 -6 1 -7 9 -4 18 7 21 14 7 14 -6 0 -13 -4 -16 -10z"/>
<path d="M5880 140 c-8 -5 -10 -10 -5 -10 6 0 17 5 25 10 8 5 11 10 5 10 -5 0
-17 -5 -25 -10z"/>
<path d="M5355 120 c-3 -5 -1 -10 4 -10 6 0 11 5 11 10 0 6 -2 10 -4 10 -3 0
-8 -4 -11 -10z"/>
<path d="M8210 52 c-78 -29 -117 -48 -103 -50 30 -4 220 67 227 84 3 8 4 14 3
13 -1 0 -58 -22 -127 -47z"/>
<path d="M11567 48 c-30 -11 -32 -35 -2 -30 37 7 66 22 60 32 -7 12 -21 12
-58 -2z"/>
<path d="M5180 40 c-8 -5 -10 -10 -5 -10 6 0 17 5 25 10 8 5 11 10 5 10 -5 0
-17 -5 -25 -10z"/>
<path d="M5370 20 c-8 -5 -10 -10 -5 -10 6 0 17 5 25 10 8 5 11 10 5 10 -5 0
-17 -5 -25 -10z"/>
<path d="M7205 15 c-24 -11 -26 -14 -9 -14 11 -1 29 6 40 14 24 18 8 18 -31 0z"/>
</g>
</svg>
